<svg width="30" height="30" viewBox="0 0 30 30" fill="none" xmlns="http://www.w3.org/2000/svg">
<circle cx="15" cy="15" r="15" fill="#4F9EEA"/>
<path d="M13.0117 13.7099L10.9237 13.5659C10.8877 13.2419 10.8697 13.0199 10.8697 12.8999C10.8697 11.8439 11.2417 10.9439 11.9857 10.1999C12.7417 9.44392 13.7557 9.06592 15.0277 9.06592C16.2757 9.06592 17.2717 9.41992 18.0157 10.1279C18.7597 10.8359 19.1317 11.7059 19.1317 12.7379C19.1317 14.2259 18.3817 15.4319 16.8817 16.3559L14.6137 17.7599C13.9537 18.1559 13.5577 18.5999 13.4257 19.0919H19.2037V20.9999H10.7617C10.7857 19.9559 11.0077 19.0439 11.4277 18.2639C11.8477 17.4839 12.5497 16.7879 13.5337 16.1759L15.4597 14.9699C16.4557 14.3459 16.9537 13.6139 16.9537 12.7739C16.9537 12.2579 16.7797 11.8259 16.4317 11.4779C16.0957 11.1299 15.6157 10.9559 14.9917 10.9559C14.3317 10.9559 13.8277 11.1599 13.4797 11.5679C13.1317 11.9639 12.9577 12.4799 12.9577 13.1159L13.0117 13.7099Z" fill="white"/>
</svg>
