<svg width="30" height="30" viewBox="0 0 30 30" fill="none" xmlns="http://www.w3.org/2000/svg">
<circle cx="15" cy="15" r="15" fill="#4F9EEA"/>
<path d="M13.9857 15.7079L12.9957 14.1059L16.2177 11.2259H10.9077V9.33594H19.0077V11.1359L15.8397 13.9079C16.7757 13.9319 17.5917 14.2619 18.2877 14.8979C18.9837 15.5339 19.3317 16.3859 19.3317 17.4539C19.3317 18.5099 18.9357 19.4099 18.1437 20.1539C17.3517 20.8979 16.2897 21.2699 14.9577 21.2699C13.6617 21.2699 12.6117 20.9159 11.8077 20.2079C11.0157 19.4879 10.5837 18.6119 10.5117 17.5799L12.6177 17.1479C12.6417 17.8199 12.8697 18.3659 13.3017 18.7859C13.7457 19.2059 14.2917 19.4159 14.9397 19.4159C15.6237 19.4159 16.1637 19.2239 16.5597 18.8399C16.9557 18.4559 17.1537 17.9879 17.1537 17.4359C17.1537 16.8119 16.9437 16.3379 16.5237 16.0139C16.1157 15.6779 15.6357 15.5099 15.0837 15.5099C14.6157 15.5099 14.2497 15.5759 13.9857 15.7079Z" fill="white"/>
</svg>
