<svg width="80" height="80" viewBox="0 0 80 80" fill="none" xmlns="http://www.w3.org/2000/svg">
<rect width="80" height="80" rx="40" fill="#E8F2FC"/>
<rect x="10" y="10" width="60" height="60" rx="30" fill="#DBEBFB"/>
<g clip-path="url(#clip0_2460_2739)">
<path d="M39.7302 25.0586C39.6599 25.0821 39.449 25.2871 39.2498 25.5098C38.6052 26.2422 35.4119 29.9981 34.7498 30.8008C30.8357 35.5645 28.9959 38.7989 28.3865 41.9629C28.2869 42.4903 28.2869 44.3242 28.3923 44.9512C28.8084 47.541 29.9099 49.7207 31.7029 51.5196C34.99 54.8008 39.7888 55.8614 44.1013 54.25C45.6892 53.6582 47.0134 52.7969 48.2673 51.5489C50.0896 49.7207 51.1853 47.5586 51.6072 44.9512C51.7127 44.3242 51.7127 42.4903 51.6131 41.9629C51.2263 39.959 50.4295 38.125 48.8884 35.6934C47.7107 33.836 46.0818 31.7383 43.2224 28.3985C42.4607 27.5137 41.5408 26.4297 41.1775 25.9961C40.3748 25.0352 40.1463 24.8887 39.7302 25.0586ZM41.5232 28.6153C46.1052 33.9649 47.74 36.1856 49.0232 38.7989C49.9138 40.6153 50.2537 41.875 50.2537 43.3633C50.2537 47.6582 47.3884 51.6016 43.2459 53.002C40.3748 53.9688 37.2927 53.6231 34.6502 52.0352C33.7009 51.4668 32.5232 50.4063 31.8377 49.5098C30.5076 47.7696 29.7459 45.543 29.7459 43.375C29.7459 41.8281 30.1677 40.3867 31.2048 38.3887C32.4177 36.0449 34.1697 33.6778 38.0076 29.1895C38.6697 28.416 39.3787 27.5782 39.5838 27.3262C39.7888 27.0801 39.9763 26.875 39.9939 26.875C40.0173 26.875 40.7029 27.6602 41.5232 28.6153Z" fill="#4F9EEA"/>
<path d="M32.6402 42.9239C32.3648 43.0938 32.3003 43.3106 32.3414 44.002C32.3941 44.9688 32.5933 45.7715 33.0093 46.709C34.1109 49.1524 36.314 50.7872 39.0328 51.1739C39.9293 51.2969 40.3043 51.2618 40.5328 51.0391C40.7554 50.8165 40.8082 50.5176 40.6734 50.2364C40.5445 49.961 40.316 49.8672 39.7066 49.8145C37.9605 49.6739 36.5894 49.0352 35.4585 47.8458C34.4273 46.7559 33.8765 45.4844 33.7359 43.8555C33.7066 43.5157 33.648 43.1875 33.607 43.1231C33.4195 42.8184 32.9625 42.7247 32.6402 42.9239Z" fill="#4F9EEA"/>
</g>
<defs>
<clipPath id="clip0_2460_2739">
<rect width="30" height="30" fill="white" transform="translate(25 25)"/>
</clipPath>
</defs>
</svg>
