<svg width="80" height="80" viewBox="0 0 80 80" fill="none" xmlns="http://www.w3.org/2000/svg">
<rect width="80" height="80" rx="40" fill="#E8F2FC"/>
<rect x="10" y="10" width="60" height="60" rx="30" fill="#DBEBFB"/>
<path d="M35.349 27.1738C34.101 27.3554 32.847 27.9648 31.9095 28.8496C31.3412 29.3886 30.9662 29.8984 30.597 30.6543C30.2982 31.2578 29.9818 32.2539 29.9818 32.5937C29.9818 32.7343 29.976 32.7343 29.3549 32.7343C28.6283 32.7343 28.4174 32.7812 28.0306 33.0273C27.6967 33.2382 27.433 33.6308 27.3392 34.0586C27.2748 34.3515 27.3041 34.5742 28.0072 38.4414C28.4174 40.6797 28.8041 42.6543 28.8685 42.8242C29.1029 43.4453 29.6654 44.0136 30.3275 44.289C30.6498 44.4179 30.6967 44.4238 33.1049 44.4414L35.5482 44.4589V47.3125C35.5482 50.4648 35.5658 50.6054 35.9174 51.2734C36.017 51.4726 36.2631 51.789 36.4564 51.9824C38.0619 53.5879 40.7279 52.955 41.4896 50.7871C41.5834 50.5175 41.6127 50.2422 41.6361 49.2519C41.6713 48.0683 41.6713 48.0449 41.8295 47.8105C41.9174 47.6816 42.0873 47.5117 42.2103 47.4355L42.433 47.2949L45.1283 47.2773L47.8236 47.2656L47.9994 47.6582C48.3803 48.5136 49.3353 49.1347 50.267 49.1406C51.4799 49.1406 52.4935 48.3496 52.8041 47.166C53.1556 45.8125 52.3236 44.4355 50.9291 44.0664C49.7924 43.7617 48.4799 44.3886 47.9994 45.4668L47.8236 45.8535L45.1869 45.8593C42.3392 45.8593 42.1928 45.8711 41.5834 46.1816C41.2142 46.3691 40.7455 46.8379 40.558 47.207C40.3002 47.7168 40.2357 48.0918 40.2357 49.1113C40.2357 50.3183 40.1713 50.5586 39.7435 50.9922C39.0756 51.6543 38.1146 51.6543 37.4467 50.9922C36.9486 50.4882 36.9545 50.5293 36.9545 47.2597V44.4589L39.4037 44.4414C41.806 44.4238 41.8529 44.4179 42.1752 44.289C42.8373 44.0136 43.3998 43.4453 43.6342 42.8242C43.6986 42.6543 44.0853 40.6797 44.4955 38.4414C45.1986 34.5742 45.2279 34.3515 45.1635 34.0586C45.0697 33.6308 44.806 33.2382 44.472 33.0273C44.0853 32.7812 43.8744 32.7343 43.1595 32.7343H42.5385L42.4974 32.4414C42.3861 31.5859 41.8705 30.3906 41.2904 29.623C39.9252 27.8125 37.5873 26.8457 35.349 27.1738ZM37.0131 28.58C38.0736 28.75 38.9174 29.1894 39.7084 29.9804C40.9271 31.1992 41.4017 32.7578 41.0619 34.4101C40.5287 36.9941 38.0678 38.7109 35.4896 38.2949C34.4467 38.1308 33.5385 37.6562 32.765 36.8711C31.4056 35.5 30.9896 33.6484 31.6166 31.8144C32.3783 29.5937 34.6986 28.205 37.0131 28.58ZM29.9818 34.2812C29.9818 34.3574 30.0463 34.6797 30.1283 34.9961C30.3041 35.6875 30.7904 36.7011 31.2064 37.2519C32.0502 38.3593 33.3217 39.2031 34.6986 39.5722C35.2201 39.707 35.39 39.7246 36.2513 39.7246C37.1127 39.7246 37.2826 39.707 37.8041 39.5722C38.5013 39.3847 39.5267 38.8925 40.0658 38.4824C40.8744 37.8672 41.5189 37.0644 41.976 36.0976C42.222 35.5761 42.5209 34.58 42.5209 34.2812C42.5209 34.1406 42.5326 34.1406 43.101 34.1406C43.5287 34.1406 43.6986 34.164 43.7455 34.2226C43.851 34.3457 42.4623 42.0214 42.2748 42.4023C42.1928 42.5547 42.0345 42.7363 41.8881 42.8418L41.6303 43.0175H36.2513H30.8724L30.6146 42.8418C30.4681 42.7363 30.3099 42.5547 30.2279 42.4023C30.0404 42.0214 28.6517 34.3457 28.7572 34.2226C28.8041 34.164 28.974 34.1406 29.4017 34.1406C29.9701 34.1406 29.9818 34.1406 29.9818 34.2812ZM50.9584 45.5898C51.2982 45.8125 51.4564 46.1113 51.4564 46.5332C51.4564 47.1543 51.0814 47.623 50.5131 47.7109C49.5228 47.8574 48.8021 46.7851 49.3236 45.9355C49.6517 45.4082 50.431 45.2441 50.9584 45.5898Z" fill="#4F9EEA"/>
<path d="M35.8695 29.4765C35.5707 29.6113 35.389 29.8632 35.0902 30.5663L34.8031 31.2402L34.1351 31.2753C33.2621 31.3163 33.0336 31.4335 32.8226 31.9316C32.6176 32.4296 32.7758 32.8046 33.4144 33.3202C33.6722 33.5253 33.9125 33.7245 33.9535 33.7597C34.0238 33.8241 33.9945 33.9706 33.7953 34.6269C33.6605 35.0663 33.5551 35.5058 33.5551 35.6054C33.5551 36.1738 34.1293 36.6601 34.7094 36.5722C34.8969 36.5429 35.1137 36.4257 35.5883 36.0683C35.934 35.8163 36.2328 35.6054 36.2504 35.6054C36.268 35.6054 36.5668 35.8163 36.9125 36.0683C37.3871 36.4257 37.6039 36.5429 37.7914 36.5722C38.3656 36.6601 38.9457 36.1738 38.9457 35.6171C38.9457 35.5234 38.8402 35.0839 38.7055 34.6386C38.5121 33.9765 38.4828 33.8183 38.5472 33.7597C38.5883 33.7245 38.8285 33.5253 39.0863 33.3202C39.725 32.8046 39.8832 32.4296 39.6781 31.9316C39.4672 31.4335 39.2387 31.3163 38.3656 31.2753L37.6976 31.2402L37.4105 30.5663C37.2523 30.1972 37.0531 29.8163 36.9652 29.7226C36.6722 29.412 36.2387 29.3124 35.8695 29.4765ZM36.4262 31.832C36.6605 32.4003 36.9769 32.6757 37.3988 32.6757H37.6156L37.3754 32.8984C37.0004 33.2441 36.9242 33.5956 37.1 34.1757C37.1469 34.3339 37.1879 34.4687 37.1879 34.4804C37.1879 34.4921 37.0648 34.4101 36.9125 34.3046C36.6664 34.1347 36.5844 34.1113 36.2504 34.1113C35.9105 34.1113 35.8344 34.1347 35.6058 34.2988C35.4652 34.4042 35.3422 34.4804 35.3363 34.4745C35.3246 34.4628 35.3539 34.3281 35.4008 34.1698C35.5765 33.5956 35.4828 33.2148 35.0902 32.8691L34.8734 32.6757H35.0961C35.5297 32.6757 35.8402 32.4062 36.0746 31.832C36.1449 31.6503 36.2269 31.5038 36.2504 31.5038C36.2738 31.5038 36.3558 31.6503 36.4262 31.832Z" fill="#4F9EEA"/>
</svg>
