<svg width="80" height="80" viewBox="0 0 80 80" fill="none" xmlns="http://www.w3.org/2000/svg">
<rect width="80" height="80" rx="40" fill="#E8F2FC"/>
<rect x="10" y="10" width="60" height="60" rx="30" fill="#DBEBFB"/>
<path d="M43.4704 26.5879C41.9118 26.7519 40.113 27.3789 38.8298 28.2109C37.0896 29.3359 35.7478 31.0175 35.1443 32.8222C34.9451 33.4199 34.7868 34.1523 34.7868 34.4629C34.7868 34.7148 34.7107 34.75 34.0779 34.8027C32.0388 34.9726 29.7009 35.9629 28.0134 37.3808C24.4919 40.3339 24.0115 45.0859 26.8767 48.6367C27.2517 49.0996 27.3044 49.1933 27.3572 49.5156C27.4978 50.4062 27.1638 51.5312 26.5368 52.2519C26.1501 52.6855 26.0974 52.8672 26.2615 53.1777C26.3904 53.4297 26.6247 53.5 27.2165 53.4531C28.5583 53.3535 29.9411 52.7851 30.9548 51.9179C31.2595 51.6601 31.2595 51.6601 31.4822 51.7422C32.238 52.0058 33.6501 52.2343 34.8161 52.2871C39.3513 52.4804 43.447 49.955 44.824 46.1172C44.9763 45.6953 45.199 44.705 45.2283 44.3359C45.2458 44.1015 45.24 44.1015 46.3298 43.9843C46.9685 43.914 48.0935 43.6855 48.5036 43.539L48.7439 43.457L49.0486 43.7148C50.0622 44.582 51.445 45.1504 52.7868 45.25C53.3786 45.2968 53.613 45.2265 53.7419 44.9746C53.906 44.664 53.8533 44.4824 53.4665 44.0488C52.8396 43.3281 52.5056 42.2031 52.6462 41.3125C52.699 40.9902 52.7517 40.8964 53.1267 40.4336C55.9568 36.9238 55.5232 32.2363 52.1013 29.2597C49.8044 27.2675 46.5701 26.2656 43.4704 26.5879ZM45.7732 27.7539C47.4431 27.9414 49.0251 28.5097 50.3728 29.4004C51.1111 29.8925 52.2419 31.0117 52.6755 31.6797C53.0798 32.3125 53.2439 32.6406 53.4665 33.2617C54.281 35.5761 53.7009 38.0547 51.8611 40.123C51.5622 40.4629 51.4568 40.914 51.4626 41.8164C51.4685 42.4785 51.5798 43.0293 51.8142 43.5683C51.8962 43.7441 51.9431 43.8964 51.9255 43.914C51.8904 43.955 51.2341 43.7148 50.8357 43.5097C50.4548 43.3222 49.6755 42.748 49.3825 42.4375C49.1247 42.1738 48.9607 42.1679 48.24 42.3964C47.9411 42.4902 47.4138 42.625 47.0622 42.6894C46.4118 42.8125 45.3337 42.9355 45.2693 42.8945C45.2517 42.8828 45.2165 42.6953 45.199 42.4785C45.1169 41.6113 44.654 40.2929 44.1267 39.4257C43.7283 38.7636 43.1892 38.0957 42.615 37.5507L42.1052 37.0703H45.9724C48.8435 37.0703 49.8806 37.0527 49.9919 37C50.1618 36.9238 50.3142 36.6777 50.3142 36.4843C50.3142 36.291 50.1618 36.0449 49.9919 35.9687C49.8806 35.916 48.6443 35.8984 45.0759 35.8984H40.3122L39.7908 35.6699C38.7478 35.2187 37.5466 34.8964 36.6208 34.8144C35.9001 34.75 35.9353 34.7793 35.9822 34.3457C36.0642 33.5254 36.5095 32.3652 37.0661 31.5332C38.8122 28.8906 42.3161 27.3672 45.7732 27.7539ZM37.2829 36.0976C39.1462 36.4843 40.6931 37.2988 41.9411 38.5351C46.3181 42.8886 43.699 49.6855 37.1599 50.957C35.5544 51.2675 33.4509 51.1269 31.7986 50.6054C30.99 50.3535 30.9255 50.3593 30.4626 50.7871C30.0232 51.1914 29.5661 51.5136 29.1326 51.7304C28.7634 51.9179 28.113 52.1523 28.0779 52.1172C28.0603 52.0996 28.1072 51.9472 28.1892 51.7714C28.4177 51.2382 28.5349 50.6816 28.5408 50.0195C28.5466 49.1172 28.4411 48.666 28.1423 48.3261C25.8337 45.7246 25.5408 42.5547 27.363 39.8242C27.7732 39.2031 28.9451 38.0605 29.6306 37.6035C30.9372 36.7363 32.5134 36.1621 34.1423 35.957C34.9158 35.8632 36.4802 35.9336 37.2829 36.0976Z" fill="#4F9EEA"/>
<path d="M39.7161 32.4648C39.2064 32.7461 39.4232 33.5547 40.0032 33.5547C40.3021 33.5547 40.5892 33.2676 40.5892 32.9746C40.5892 32.5352 40.1029 32.248 39.7161 32.4648Z" fill="#4F9EEA"/>
<path d="M42.0568 32.4648C41.6642 32.6816 41.6759 33.3027 42.0802 33.4844C42.1916 33.5371 43.2111 33.5547 46.0353 33.5547C48.8595 33.5547 49.8791 33.5371 49.9904 33.4844C50.1603 33.4082 50.3126 33.1621 50.3126 32.9688C50.3126 32.7754 50.1603 32.5293 49.9904 32.4531C49.756 32.3477 42.2501 32.3594 42.0568 32.4648Z" fill="#4F9EEA"/>
<path d="M29.9896 41.8398C29.4798 42.1211 29.6966 42.9297 30.2767 42.9297C30.5755 42.9297 30.8626 42.6426 30.8626 42.3496C30.8626 41.9102 30.3763 41.623 29.9896 41.8398Z" fill="#4F9EEA"/>
<path d="M32.3302 41.8398C31.9376 42.0566 31.9494 42.6777 32.3537 42.8594C32.5705 42.959 40.047 42.959 40.2638 42.8594C40.4337 42.7832 40.5861 42.5371 40.5861 42.3438C40.5861 42.1504 40.4337 41.9043 40.2638 41.8281C40.0294 41.7227 32.5236 41.7344 32.3302 41.8398Z" fill="#4F9EEA"/>
<path d="M29.9865 45.3555C29.5939 45.5723 29.6056 46.1934 30.0099 46.375C30.2267 46.4746 40.047 46.4746 40.2638 46.375C40.4337 46.2988 40.5861 46.0527 40.5861 45.8594C40.5861 45.666 40.4337 45.4199 40.2638 45.3438C40.0294 45.2383 30.1798 45.25 29.9865 45.3555Z" fill="#4F9EEA"/>
</svg>
