<svg width="80" height="80" viewBox="0 0 80 80" fill="none" xmlns="http://www.w3.org/2000/svg">
<rect width="80" height="80" rx="40" fill="#E8F2FC"/>
<rect x="10" y="10" width="60" height="60" rx="30" fill="#DBEBFB"/>
<path d="M33.4684 27.5605C30.4449 27.7422 27.7027 29.4648 26.1734 32.1308C24.9547 34.2519 24.6793 37.0586 25.4527 39.3554C25.9098 40.709 26.6012 41.8515 27.6031 42.8886C27.9254 43.2285 27.9957 43.3398 28.0777 43.6386C28.3004 44.5176 29.0621 45.1797 29.9293 45.2558L30.2633 45.291L30.3043 45.6308C30.4215 46.6211 31.277 47.4765 32.2145 47.5468L32.5426 47.5703L32.6129 47.9804C32.777 48.9765 33.4801 49.6855 34.4586 49.8437C34.6402 49.873 34.8102 49.9082 34.8395 49.9258C34.8688 49.9433 34.8981 50.0957 34.9156 50.2656C35.0094 51.3847 36.1754 52.2988 37.3356 52.1582C37.8688 52.0879 38.3023 51.8418 38.9 51.2558L39.4449 50.7343L40.1422 51.4082C40.9039 52.1406 41.2027 52.3281 41.8004 52.4218C42.6969 52.5683 43.652 52.082 44.068 51.2558C44.15 51.0976 44.2496 50.7754 44.2906 50.5468L44.3609 50.1367H44.5719C44.8707 50.1367 45.3102 49.9902 45.6383 49.7793C46.1832 49.4277 46.5523 48.8301 46.6051 48.1972C46.6402 47.8574 46.6402 47.8515 46.8277 47.8515C47.1266 47.8515 47.6246 47.6758 47.9527 47.459C48.4977 47.1015 48.8375 46.5449 48.8902 45.9121L48.9254 45.5781L49.2652 45.5371C49.9098 45.4609 50.6598 44.9746 50.9293 44.4531C50.982 44.3476 51.2691 44.0312 51.5621 43.7558C52.2945 43.0586 53.0738 42.1738 53.4606 41.5937C54.8492 39.5136 55.3121 37.0117 54.7613 34.5273C54.5563 33.5957 53.9996 32.2656 53.6949 31.9843C53.3902 31.6972 52.8922 31.8437 52.7809 32.248C52.7223 32.4531 52.7398 32.5176 53.0387 33.1445C53.4254 33.9765 53.6363 34.6679 53.7535 35.5468C54.0758 37.9433 53.2262 40.4277 51.4977 42.1269L51.0934 42.5312L50.9293 42.2441C50.8238 42.0683 49.6285 40.8203 47.6715 38.8574L44.5719 35.7519L44.8824 35.582C45.2926 35.3535 46.8981 33.7715 46.9449 33.5488C47.0211 33.2207 46.7223 32.8515 46.3824 32.8515C46.1715 32.8515 46.025 32.9687 45.234 33.7363C44.5953 34.3691 44.3961 34.5273 44.027 34.7031C43.4586 34.9726 43.107 35.0195 41.5953 35.0195C40.6285 35.0195 40.3121 35.0371 40.1891 35.1015C40.1012 35.1484 39.609 35.6113 39.0934 36.1328C38.5777 36.6543 38.0504 37.1347 37.9215 37.1992C37.4469 37.4511 36.7203 37.3105 36.3629 36.9062C36.1109 36.625 36.0172 36.373 36.0172 36.0039C36.0231 35.4121 36.0758 35.3418 38.525 32.9043C39.7731 31.6621 40.9918 30.4961 41.232 30.3203C42.8375 29.1367 44.6949 28.6035 46.6754 28.7617C47.6481 28.8379 48.6793 29.1308 49.5641 29.5761C49.9918 29.7929 50.2731 29.7988 50.4606 29.5937C50.6539 29.3886 50.6949 29.1484 50.5777 28.9316C50.5133 28.7968 50.3551 28.6797 49.9742 28.4922C46.8922 26.9453 43.025 27.3496 40.3707 29.5058L40.0074 29.7988L39.6969 29.5468C38.6305 28.6797 37.2828 28.041 35.859 27.7304C35.443 27.6367 34.2008 27.5136 33.9078 27.5312C33.8258 27.5371 33.6324 27.5488 33.4684 27.5605ZM34.7281 28.7558C36.3043 28.8965 37.8277 29.5176 38.9762 30.4726L39.152 30.6191L37.2418 32.541C36.1402 33.6484 35.2672 34.5742 35.1852 34.7265C34.9156 35.2011 34.8277 35.5703 34.857 36.1269C34.8746 36.5371 34.9156 36.707 35.0621 37.0176C35.6773 38.3359 37.1656 38.8691 38.4723 38.2304C38.7711 38.084 39.0465 37.8554 39.7965 37.123L40.7398 36.1972L42.0172 36.1855L43.2945 36.1738L46.5758 39.4492C48.3746 41.248 49.8981 42.8008 49.9508 42.9004C50.0973 43.1758 50.068 43.6445 49.8863 43.9199C49.7164 44.1777 49.3238 44.3945 49.0367 44.3945C48.6148 44.3945 48.4566 44.2597 45.9195 41.7285C44.2496 40.0644 43.3766 39.2324 43.2652 39.2031C42.9137 39.1211 42.5797 39.4082 42.5797 39.8066C42.5797 40.0117 42.6793 40.123 45.0934 42.5429C46.5523 44.0078 47.6422 45.1445 47.6773 45.2441C47.9176 45.8769 47.5191 46.5742 46.8629 46.6621C46.3648 46.7265 46.3473 46.7148 43.693 44.0664C42.2984 42.6777 41.1266 41.5586 41.0328 41.5234C40.6637 41.3886 40.2945 41.6699 40.2945 42.0918C40.2945 42.3027 40.3883 42.4082 42.7789 44.8047C44.1441 46.1758 45.3043 47.3769 45.357 47.4824C45.4977 47.7636 45.4801 48.1738 45.3043 48.4726C45.0641 48.8769 44.5133 49.0703 44.0621 48.9062C43.9742 48.8711 43.3063 48.2558 42.5797 47.5351C40.441 45.4199 40.2711 45.2734 40.0309 45.2734C39.9137 45.2734 39.7555 45.3144 39.6793 45.3672C39.5152 45.4726 39.3922 45.8008 39.4449 45.9883C39.4684 46.0644 40.2711 46.914 41.2379 47.8808C43.0074 49.6621 43.1656 49.8554 43.1656 50.2656C43.1656 50.7109 42.7672 51.1855 42.3043 51.2793C41.8941 51.3613 41.6598 51.2265 40.8922 50.4648L40.1715 49.75L40.2418 49.3574C40.4234 48.3847 39.9547 47.4531 39.0523 47.0019C38.8238 46.8906 38.5777 46.7968 38.5074 46.7968C38.4371 46.7968 38.2965 46.7793 38.1969 46.7617C38.027 46.7265 38.0152 46.7031 37.9508 46.334C37.7809 45.3496 37.0895 44.664 36.1051 44.5C35.6891 44.4297 35.7066 44.4531 35.6363 43.9375C35.5543 43.3105 34.9508 42.5722 34.3356 42.3437C34.1481 42.2734 33.8609 42.2031 33.6969 42.1855L33.3981 42.1504L33.3629 41.8105C33.2984 41.1015 32.7828 40.3867 32.1031 40.0703C31.816 39.9355 31.693 39.9121 31.2125 39.9121C30.7086 39.9121 30.6207 39.9297 30.275 40.0937C29.859 40.2929 28.9449 41.1074 28.5406 41.6465L28.3121 41.9453L28.0895 41.6875C27.2867 40.7734 26.6422 39.4843 26.3609 38.2422C26.0504 36.8886 26.1617 35.2011 26.6481 33.8945C27.691 31.0527 30.275 29.0429 33.2633 28.7558C33.984 28.6855 33.9898 28.6855 34.7281 28.7558ZM31.6813 41.1718C31.8043 41.2363 31.9684 41.3711 32.0387 41.4765C32.2203 41.7285 32.2613 42.25 32.1207 42.5254C31.9859 42.7949 30.943 43.8496 30.6734 43.9902C30.0641 44.3066 29.2906 43.9258 29.1793 43.2636C29.109 42.8066 29.1852 42.666 29.9117 41.916C30.2867 41.5293 30.6793 41.1777 30.7731 41.1367C31.0309 41.0254 31.4176 41.0371 31.6813 41.1718ZM33.9488 43.4511C34.2945 43.6093 34.5113 43.9551 34.5113 44.3535C34.5113 44.5234 34.4703 44.7402 34.4176 44.834C34.2887 45.0801 33.0934 46.2519 32.8941 46.3222C32.2613 46.5625 31.5523 46.1582 31.4645 45.5195C31.4117 45.1035 31.5348 44.8808 32.2027 44.1953C33.0348 43.3398 33.3805 43.1933 33.9488 43.4511ZM36.234 45.7363C36.6969 45.9472 36.9371 46.5273 36.7555 46.9961C36.6148 47.3711 35.3727 48.5781 35.0387 48.666C34.4762 48.8183 33.8668 48.4258 33.7613 47.8457C33.6793 47.4121 33.8082 47.1777 34.5172 46.4687C34.8746 46.1054 35.2613 45.7656 35.3727 45.7187C35.6481 45.5957 35.941 45.6074 36.234 45.7363ZM38.6598 48.1093C38.9059 48.2734 39.1227 48.6718 39.1227 48.9648C39.1227 49.3105 38.9059 49.6328 38.2496 50.2715C37.5699 50.9394 37.3297 51.0625 36.902 50.9863C36.2516 50.8691 35.8531 50.084 36.152 49.5156C36.2867 49.2636 37.482 48.1035 37.7164 47.998C37.9859 47.8808 38.3785 47.9277 38.6598 48.1093Z" fill="#4F9EEA"/>
<path d="M38.2101 43.9141C37.9113 44.1543 37.8878 44.5527 38.1515 44.7988C38.5441 45.168 39.2296 44.7578 39.1007 44.2422C39.007 43.8672 38.4972 43.6797 38.2101 43.9141Z" fill="#4F9EEA"/>
<path d="M51.7797 30.0449C51.3989 30.1972 51.3051 30.6894 51.5981 30.9824C51.8208 31.205 52.1079 31.2109 52.354 31.0058C52.6821 30.7304 52.6118 30.2265 52.225 30.0683C51.9907 29.9687 51.979 29.9687 51.7797 30.0449Z" fill="#4F9EEA"/>
</svg>
