<svg width="132" height="26" viewBox="0 0 132 26" fill="none" xmlns="http://www.w3.org/2000/svg">
<path d="M8.96065 21.8019C6.31479 21.8019 4.62144 19.7558 4.62144 17.1805C4.62144 14.6052 6.31479 12.5237 8.96065 12.5237C10.8657 12.5237 12.2768 13.6526 12.6296 15.2754H17.3569C16.8277 11.2185 13.2999 8.32564 8.96065 8.32564C3.91588 8.32564 0 12.171 0 17.1805C0 22.19 3.91588 26 8.96065 26C13.2999 26 16.8277 23.1425 17.3569 19.0855H12.6296C12.2768 20.7083 10.8657 21.8019 8.96065 21.8019Z" fill="#4F9EEA"/>
<path d="M31.1288 8.74898V19.5794C29.9294 21.0258 28.5183 21.8019 27.2482 21.8019C24.814 21.8019 23.4382 20.2497 23.4382 17.498V8.74898H18.8168V17.7802C18.8168 22.7191 21.7801 26 26.2605 26C28.1655 26 29.753 25.3297 31.1288 24.2361V25.5767H35.7503V8.74898H31.1288Z" fill="#4F9EEA"/>
<path d="M41.5229 19.7558L37.2543 19.7205C37.6071 24.6242 41.3465 26 45.0508 26C49.3194 26 52.565 24.1655 52.565 20.4261C52.565 17.1805 50.1308 15.981 47.5202 15.5224L44.4863 15.0285C42.8635 14.7463 42.4049 14.0054 42.4049 13.3704C42.4049 12.559 43.2516 11.9593 45.0155 11.9593C46.6383 11.9593 48.0847 12.4532 48.1905 13.9701H52.4592C52.0711 9.13704 48.0494 8.29037 45.0155 8.29037C40.7468 8.29037 37.8187 10.3718 37.8187 13.829C37.8187 17.0041 40.3235 18.3446 42.7929 18.768L46.4266 19.403C47.5908 19.6147 48.1552 20.1791 48.1552 20.8494C48.1552 21.8019 46.9205 22.2605 45.1566 22.2605C43.181 22.2605 41.8052 21.6608 41.5229 19.7558Z" fill="#4F9EEA"/>
<path d="M66.4966 21.0611C65.6499 21.4138 64.6621 21.7313 63.6038 21.7313C61.8751 21.7313 60.6404 20.8494 60.6404 18.8738V12.6296H66.8141V8.74898H60.6404V2.64586H56.019V8.74898H52.4206V12.6296H56.019V18.8738C56.019 23.1777 58.559 26 63.0746 26C64.3093 26 65.5793 25.8589 67.1316 25.2592L66.4966 21.0611Z" fill="#4F9EEA"/>
<path d="M76.0787 8.32564C70.787 8.32564 67.1181 11.9593 67.1181 17.1805C67.1181 22.3664 70.787 26 76.0787 26C81.3352 26 85.0041 22.3664 85.0041 17.1805C85.0041 11.9593 81.3352 8.32564 76.0787 8.32564ZM76.0787 21.8019C73.5034 21.8019 71.7395 19.8969 71.7395 17.1805C71.7395 14.4288 73.5034 12.5237 76.0787 12.5237C78.6187 12.5237 80.3827 14.4288 80.3827 17.1805C80.3827 19.8969 78.6187 21.8019 76.0787 21.8019Z" fill="#4F9EEA"/>
<path d="M99.2887 0.529172V9.70149C97.9834 8.85482 96.3253 8.32564 94.4556 8.32564C89.7989 8.32564 86.0594 12.2768 86.0594 17.1452C86.0594 22.0488 89.7989 26 94.4556 26C96.3253 26 97.9834 25.4708 99.2887 24.6242V25.5767H103.91V0.529172H99.2887ZM95.1612 21.8019C92.5153 21.8019 90.6808 19.6852 90.6808 17.1452C90.6808 14.6404 92.5153 12.5237 95.1612 12.5237C96.6781 12.5237 98.1951 12.9471 99.2887 14.4993V19.8263C98.1951 21.3786 96.6781 21.8019 95.1612 21.8019Z" fill="#4F9EEA"/>
<path d="M109.427 5.46811C110.979 5.46811 112.249 4.30393 112.249 2.7517C112.249 1.16418 110.979 0 109.427 0C107.839 0 106.605 1.16418 106.605 2.7517C106.605 4.30393 107.839 5.46811 109.427 5.46811ZM107.134 8.74898V25.5767H111.755V8.74898H107.134Z" fill="#4F9EEA"/>
<path d="M127.18 8.74898V9.70149C125.875 8.85482 124.217 8.32564 122.347 8.32564C117.691 8.32564 113.951 12.2768 113.951 17.1805C113.951 22.0488 117.691 26 122.347 26C124.217 26 125.875 25.4708 127.18 24.6242V25.5767H131.802V8.74898H127.18ZM123.053 21.8019C120.407 21.8019 118.573 19.6852 118.573 17.1805C118.573 14.6404 120.407 12.5237 123.053 12.5237C124.57 12.5237 126.087 12.9471 127.18 14.4993V19.8263C126.087 21.3786 124.57 21.8019 123.053 21.8019Z" fill="#4F9EEA"/>
</svg>
