<svg width="50" height="50" viewBox="0 0 50 50" fill="none" xmlns="http://www.w3.org/2000/svg">
<circle cx="25" cy="25" r="25" fill="white" fill-opacity="0.1"/>
<g clip-path="url(#clip0_2460_2785)">
<path d="M23.851 13.0515C22.8198 13.1547 21.7276 13.4125 20.7479 13.7781C19.9323 14.0781 18.5448 14.8234 18.1135 15.1843C17.8698 15.3906 17.8745 15.714 18.1276 15.9156C18.3198 16.075 18.5026 16.0234 19.0651 15.6672C20.0354 15.0484 21.1276 14.575 22.2526 14.289C23.2792 14.0265 23.8089 13.9656 24.9995 13.9656C26.1854 13.9656 26.7198 14.0265 27.7417 14.289C29.6635 14.7812 31.3745 15.7609 32.8042 17.1953C33.6901 18.0765 34.3323 18.9671 34.8901 20.0734C35.4151 21.1093 35.7714 22.239 35.9495 23.4297C36.0667 24.2031 36.0714 25.7922 35.9542 26.5468C35.387 30.2078 33.1839 33.264 29.9214 34.8953C28.8854 35.4156 27.751 35.7718 26.5698 35.95C25.7964 36.0672 24.2073 36.0718 23.4526 35.9547C21.451 35.6453 19.6698 34.8718 18.0854 33.625C17.2323 32.95 16.1917 31.7734 15.5776 30.789C14.8323 29.589 14.2792 28.075 14.0495 26.5937C13.9323 25.839 13.9323 24.1609 14.0495 23.4062C14.2885 21.8828 14.837 20.3828 15.6198 19.1312C15.962 18.5921 15.9854 18.4187 15.7698 18.1984C15.601 18.0343 15.3667 18.0156 15.1885 18.1562C14.9307 18.3578 14.1573 19.7593 13.8245 20.6218C12.4042 24.3015 12.8495 28.4359 15.0245 31.6656C17.926 35.9875 23.2464 37.9515 28.2573 36.5453C32.612 35.3265 35.9729 31.6562 36.7839 27.2312C37.5151 23.2703 36.301 19.3468 33.4792 16.5203C31.6135 14.6547 29.3542 13.525 26.687 13.1172C26.0964 13.0281 24.4464 12.9859 23.851 13.0515Z" fill="white"/>
<path d="M16.6281 16.4687C16.4687 16.5296 16.3281 16.7452 16.3281 16.9234C16.3281 17.2984 16.8156 17.5046 17.0922 17.2468C17.3312 17.0265 17.3031 16.7124 17.0312 16.5249C16.8672 16.4171 16.7875 16.403 16.6281 16.4687Z" fill="white"/>
<path d="M22.3515 18.9625C21.7656 19.0703 21.0812 19.5484 20.7296 20.0922C20.439 20.5422 20.3359 20.9078 20.3359 21.5125V22.0328L20.0406 22.1172C19.2718 22.3375 18.6109 22.9797 18.3343 23.7718C18.2453 24.025 18.2265 24.1843 18.2265 24.6109V25.1359L18.0625 25.164C17.7625 25.2203 17.2281 25.5109 16.9421 25.7734C16.0796 26.575 15.8593 27.7937 16.389 28.8531C16.5812 29.2468 17.0968 29.7531 17.5 29.9593C18.5078 30.4609 19.6609 30.2828 20.4578 29.5L20.7812 29.1859L21.1 29.4953C22.1125 30.489 23.6687 30.4937 24.6765 29.5L25 29.1859L25.3187 29.4953C26.3312 30.489 27.8875 30.4937 28.8953 29.5L29.2187 29.1859L29.5375 29.4953C30.55 30.489 32.1109 30.4937 33.1093 29.5047C33.4937 29.125 33.6906 28.7828 33.8218 28.2718C34.0515 27.3625 33.7656 26.4343 33.0625 25.7781C32.7625 25.5062 32.2421 25.2156 31.9515 25.1687L31.7734 25.1359V24.6109C31.7734 24.1843 31.7546 24.025 31.6656 23.7718C31.389 22.9797 30.7281 22.3375 29.9593 22.1172L29.664 22.0328V21.5125C29.664 21.0906 29.6453 20.9312 29.5562 20.6781C29.1906 19.6187 28.1921 18.9062 27.0812 18.9062C26.4437 18.9062 25.8062 19.1781 25.3187 19.6515L25 19.9656L24.6812 19.6515C24.0531 19.0375 23.2328 18.7937 22.3515 18.9625ZM23.6125 20.0265C23.964 20.2 24.2125 20.4578 24.3812 20.8187C24.5218 21.1328 24.5687 21.6156 24.475 21.8734C24.4234 22.0328 24.3812 22.0656 24.1609 22.1453C23.7812 22.2765 23.4296 22.5062 23.1437 22.8062L22.8906 23.0734L22.6375 22.8062C22.3515 22.5062 22 22.2765 21.6203 22.1453C21.4 22.0656 21.3578 22.0328 21.3062 21.8734C21.264 21.7656 21.25 21.5781 21.264 21.3859C21.3437 20.214 22.5578 19.5062 23.6125 20.0265ZM27.8312 20.0265C28.1828 20.2 28.4312 20.4578 28.6 20.8187C28.7406 21.1328 28.7875 21.6156 28.6937 21.8734C28.6421 22.0328 28.6 22.0656 28.3796 22.1453C28 22.2765 27.6484 22.5062 27.3625 22.8062L27.1093 23.0734L26.8562 22.8062C26.5703 22.5062 26.2187 22.2765 25.839 22.1453C25.6187 22.0656 25.5765 22.0328 25.525 21.8734C25.4828 21.7656 25.4687 21.5781 25.4828 21.3859C25.5625 20.214 26.7765 19.5062 27.8312 20.0265ZM21.5031 23.1203C21.8546 23.2937 22.1031 23.5515 22.2718 23.9125C22.4125 24.2265 22.4593 24.7093 22.3656 24.9672C22.314 25.1265 22.2718 25.1593 22.0515 25.239C21.6718 25.3703 21.3203 25.6 21.0343 25.9L20.7812 26.1672L20.5281 25.9C20.2421 25.6 19.8906 25.3703 19.5109 25.239C19.2906 25.1593 19.2484 25.1265 19.1968 24.9672C19.1546 24.8593 19.1406 24.6718 19.1546 24.4797C19.2343 23.3078 20.4484 22.6 21.5031 23.1203ZM25.7218 23.1203C26.0734 23.2937 26.3218 23.5515 26.4906 23.9125C26.6312 24.2265 26.6781 24.7093 26.5843 24.9672C26.5328 25.1265 26.4906 25.1593 26.2703 25.239C25.8906 25.3703 25.539 25.6 25.2531 25.9L25 26.1672L24.7468 25.9C24.4609 25.6 24.1093 25.3703 23.7296 25.239C23.5093 25.1593 23.4671 25.1265 23.4156 24.9672C23.3734 24.8593 23.3593 24.6718 23.3734 24.4797C23.4531 23.3078 24.6671 22.6 25.7218 23.1203ZM29.9406 23.1203C30.2921 23.2937 30.5406 23.5515 30.7093 23.9125C30.85 24.2265 30.8968 24.7093 30.8031 24.9672C30.7515 25.1265 30.7093 25.1593 30.489 25.239C30.1093 25.3703 29.7578 25.6 29.4718 25.9L29.2187 26.1672L28.9656 25.9C28.6796 25.6 28.3281 25.3703 27.9484 25.239C27.7281 25.1593 27.6859 25.1265 27.6343 24.9672C27.5921 24.8593 27.5781 24.6718 27.5921 24.4797C27.6718 23.3078 28.8859 22.6 29.9406 23.1203ZM19.3937 26.214C19.7453 26.3875 19.9937 26.6406 20.1671 27.0109C20.2703 27.2312 20.289 27.339 20.289 27.6718C20.289 28.1593 20.1531 28.4875 19.8203 28.8203C19.4921 29.1531 19.1593 29.289 18.6718 29.289C18.325 29.289 18.2359 29.2703 17.9968 29.1531C17.6406 28.9797 17.3406 28.6797 17.1812 28.3375C17.0734 28.1125 17.0546 28.0047 17.0546 27.6718C17.0546 27.339 17.0734 27.2312 17.1765 27.0156C17.5843 26.1437 18.55 25.7968 19.3937 26.214ZM23.6125 26.214C23.964 26.3875 24.2125 26.6406 24.3859 27.0109C24.489 27.2312 24.5078 27.339 24.5078 27.6718C24.5078 28.1593 24.3718 28.4875 24.039 28.8203C23.7109 29.1531 23.3781 29.289 22.8906 29.289C22.5437 29.289 22.4546 29.2703 22.2156 29.1531C21.8593 28.9797 21.5593 28.6797 21.4 28.3375C21.2921 28.1125 21.2734 28.0047 21.2734 27.6718C21.2734 27.339 21.2921 27.2312 21.3953 27.0156C21.8031 26.1437 22.7687 25.7968 23.6125 26.214ZM27.8312 26.214C28.1828 26.3875 28.4312 26.6406 28.6046 27.0109C28.7078 27.2312 28.7265 27.339 28.7265 27.6718C28.7265 28.1593 28.5906 28.4875 28.2578 28.8203C27.9296 29.1531 27.5968 29.289 27.1093 29.289C26.7625 29.289 26.6734 29.2703 26.4343 29.1531C26.0781 28.9797 25.7781 28.6797 25.6187 28.3375C25.5109 28.1125 25.4921 28.0047 25.4921 27.6718C25.4921 27.339 25.5109 27.2312 25.614 27.0156C26.0218 26.1437 26.9875 25.7968 27.8312 26.214ZM32.05 26.214C32.4015 26.3875 32.65 26.6406 32.8234 27.0109C32.9265 27.2312 32.9453 27.339 32.9453 27.6718C32.9453 28.1593 32.8093 28.4875 32.4765 28.8203C32.1484 29.1531 31.8156 29.289 31.3281 29.289C30.9812 29.289 30.8921 29.2703 30.6531 29.1531C30.2968 28.9797 29.9968 28.6797 29.8375 28.3375C29.7296 28.1125 29.7109 28.0047 29.7109 27.6718C29.7109 27.339 29.7296 27.2312 29.8328 27.0156C30.2406 26.1437 31.2062 25.7968 32.05 26.214Z" fill="white"/>
</g>
<defs>
<clipPath id="clip0_2460_2785">
<rect width="24" height="24" fill="white" transform="translate(13 13)"/>
</clipPath>
</defs>
</svg>
