<svg width="40" height="40" viewBox="0 0 40 40" fill="none" xmlns="http://www.w3.org/2000/svg">
<circle cx="20" cy="20" r="19.5" fill="white" stroke="#002A47"/>
<g clip-path="url(#clip0_1110_1245)">
<path d="M20.834 17.5001H24.584L24.1673 19.1667H20.834V26.6667H19.1673V19.1667H15.834V17.5001H19.1673V15.9401C19.1673 14.4542 19.3223 13.9151 19.6123 13.3717C19.8965 12.8349 20.3355 12.3959 20.8723 12.1117C21.4157 11.8217 21.9548 11.6667 23.4407 11.6667C23.8757 11.6667 24.2573 11.7084 24.584 11.7917V13.3334H23.4407C22.3373 13.3334 22.0015 13.3984 21.659 13.5817C21.4057 13.7167 21.2173 13.9051 21.0823 14.1584C20.899 14.5009 20.834 14.8367 20.834 15.9401V17.5001Z" fill="#003459"/>
</g>
<defs>
<clipPath id="clip0_1110_1245">
<rect width="20" height="20" fill="white" transform="translate(10 10)"/>
</clipPath>
</defs>
</svg>
