<svg width="80" height="80" viewBox="0 0 80 80" fill="none" xmlns="http://www.w3.org/2000/svg">
<rect width="80" height="80" rx="40" fill="#E8F2FC"/>
<rect x="10" y="10" width="60" height="60" rx="30" fill="#DBEBFB"/>
<path d="M45.3494 46.1758C45.1209 46.0645 44.9568 45.7422 45.0096 45.5137C45.0271 45.4199 45.1267 45.2734 45.2205 45.1797L45.3963 45.0098L47.242 44.9805L49.0818 44.9512L45.4783 41.3477L41.8748 37.7441L38.8689 40.75C36.0447 43.5684 35.8514 43.75 35.658 43.75C35.5467 43.75 35.3885 43.709 35.3123 43.6563C35.0721 43.498 27.6951 36.1152 27.6014 35.9453C27.3728 35.5117 27.6365 35.0195 28.0935 35.0195C28.2517 35.0195 28.3865 35.0723 28.5506 35.1895C28.6736 35.2832 30.3201 36.9063 32.2068 38.793L35.6346 42.2266L38.5935 39.2734C40.574 37.293 41.6053 36.3027 41.7166 36.2793C41.8045 36.2559 41.9451 36.2559 42.0389 36.2793C42.1443 36.3027 43.4627 37.5801 46.1111 40.2227L50.0193 44.1309V42.2617V40.3984L50.2244 40.1934C50.4119 40.0059 50.4588 39.9883 50.6756 40.0176C50.8279 40.0352 50.9744 40.1055 51.0681 40.1992L51.2205 40.3516L51.2381 43.0469C51.2556 46.0469 51.2556 46.0234 50.8689 46.1875C50.5584 46.3164 45.6189 46.3047 45.3494 46.1758Z" fill="#4F9EEA"/>
</svg>
