<svg width="80" height="80" viewBox="0 0 80 80" fill="none" xmlns="http://www.w3.org/2000/svg">
<rect width="80" height="80" rx="40" fill="#E8F2FC"/>
<rect x="10" y="10" width="60" height="60" rx="30" fill="#DBEBFB"/>
<path d="M38.5051 25.0527C38.3469 25.1172 37.2746 26.2363 36.2375 27.4199C31.4387 32.8926 28.5148 37.8262 27.6887 41.8457C27.5129 42.6953 27.4719 44.3125 27.6008 45.2383C27.9641 47.8281 29.1594 50.1426 31.0461 51.9297C35.4289 56.0664 42.3312 55.9961 46.6086 51.7656C47.5812 50.7988 48.2551 49.8789 48.8059 48.7539C49.0754 48.1914 49.0871 48.1445 49.0227 47.9453C48.9348 47.6699 48.7121 47.5 48.4367 47.5C48.1555 47.5 47.9269 47.6758 47.7863 48.0156C47.1887 49.3984 45.7238 51.0977 44.3117 52.041C40.5559 54.543 35.7453 54.2676 32.2824 51.3613C29.7512 49.2344 28.4094 45.8242 28.8371 42.6191C29.1418 40.3164 30.3723 37.5332 32.5344 34.2695C34.0578 31.9785 36.2141 29.2539 38.2824 27.0273L38.7512 26.5176L39.5187 27.3555C41.0598 29.0488 42.759 31.1289 43.9191 32.7519C44.2414 33.1973 44.5461 33.6016 44.6105 33.6426C44.7394 33.748 45.0383 33.7539 45.2434 33.6602C45.425 33.5781 45.5656 33.332 45.5656 33.0977C45.5656 32.5996 41.9504 28.0586 39.6887 25.709C39.0148 25.0117 38.8449 24.918 38.5051 25.0527Z" fill="#4F9EEA"/>
<path d="M44.6976 36.3203C44.6215 36.3554 44.5101 36.4844 44.4515 36.5957C44.3754 36.7539 41.9437 42.4082 41.2992 43.9258L41.2172 44.1308L40.2328 42.1679C39.4301 40.5683 39.2133 40.1875 39.0726 40.1054C38.9144 40.0117 38.7094 40 37.1859 40C35.6976 40 35.4515 40.0117 35.3109 40.0996C34.9711 40.2988 34.9125 40.7793 35.1879 41.0605L35.3578 41.2304H36.8578H38.3578L39.5707 43.6445C40.725 45.9355 40.8011 46.0703 41.0062 46.1699C41.1937 46.2637 41.2582 46.2695 41.4398 46.2109C41.557 46.1699 41.6918 46.0703 41.7504 45.9765C41.8031 45.8828 42.559 44.1484 43.432 42.1152C44.2992 40.082 45.0199 38.4179 45.0375 38.4179C45.0551 38.4179 45.7816 39.8418 46.6488 41.5879C47.598 43.4922 48.2894 44.8047 48.3715 44.8691C48.5004 44.9746 48.6293 44.9804 50.3226 44.9804H52.139L52.309 44.8105C52.5023 44.6172 52.5375 44.3242 52.3969 44.0488C52.2504 43.7734 52.1215 43.75 50.5746 43.75H49.139L47.3285 40.1289C46.3324 38.1426 45.4652 36.4668 45.4008 36.4082C45.2543 36.2734 44.8793 36.2265 44.6976 36.3203Z" fill="#4F9EEA"/>
</svg>
