<svg width="50" height="50" viewBox="0 0 50 50" fill="none" xmlns="http://www.w3.org/2000/svg">
<circle cx="25" cy="25" r="25" fill="white" fill-opacity="0.1"/>
<path d="M23.9033 14.0387C23.7873 14.086 23.001 14.9067 22.2404 15.7746C18.7213 19.7879 16.5772 23.4059 15.9713 26.3536C15.8424 26.9766 15.8123 28.1625 15.9068 28.8414C16.1733 30.7407 17.0498 32.4379 18.4334 33.7485C21.6475 36.7821 26.7092 36.7305 29.8459 33.6282C30.5592 32.9192 31.0533 32.2446 31.4572 31.4196C31.6549 31.0071 31.6635 30.9727 31.6162 30.8266C31.5518 30.6246 31.3885 30.5 31.1865 30.5C30.9803 30.5 30.8127 30.6289 30.7096 30.8782C30.2713 31.8922 29.1971 33.1383 28.1615 33.8301C25.4072 35.6649 21.8795 35.4629 19.34 33.3317C17.4838 31.7719 16.4998 29.2711 16.8135 26.9207C17.0369 25.2321 17.9393 23.1911 19.5248 20.7977C20.642 19.1176 22.2233 17.1196 23.74 15.4868L24.0838 15.1129L24.6467 15.7274C25.7768 16.9692 27.0229 18.4946 27.8736 19.6848C28.11 20.0114 28.3334 20.3078 28.3807 20.3379C28.4752 20.4153 28.6943 20.4196 28.8447 20.3508C28.9779 20.2907 29.0811 20.1102 29.0811 19.9383C29.0811 19.5731 26.4299 16.243 24.7713 14.52C24.2772 14.0086 24.1525 13.9399 23.9033 14.0387Z" fill="white"/>
<path d="M28.4453 22.3015C28.3895 22.3273 28.3078 22.4219 28.2649 22.5035C28.209 22.6195 26.4258 26.766 25.9531 27.8789L25.893 28.0293L25.1711 26.5898C24.5824 25.4168 24.4234 25.1375 24.3203 25.0773C24.2043 25.0086 24.0539 25 22.9367 25C21.8453 25 21.6649 25.0086 21.5617 25.073C21.3125 25.2191 21.2695 25.5715 21.4715 25.7777L21.5961 25.9023H22.6961H23.7961L24.6856 27.6726C25.532 29.3527 25.5879 29.4515 25.7383 29.5246C25.8758 29.5933 25.9231 29.5976 26.0563 29.5547C26.1422 29.5246 26.241 29.4515 26.284 29.3828C26.3227 29.314 26.877 28.0422 27.5172 26.5511C28.1531 25.0601 28.6817 23.8398 28.6945 23.8398C28.7074 23.8398 29.2402 24.884 29.8762 26.1644C30.5723 27.5609 31.0793 28.5234 31.1395 28.5707C31.234 28.648 31.3285 28.6523 32.5703 28.6523H33.9024L34.027 28.5277C34.1688 28.3859 34.1945 28.1711 34.0914 27.9691C33.984 27.7672 33.8895 27.75 32.7551 27.75H31.7024L30.3746 25.0945C29.6442 23.6379 29.0082 22.409 28.9609 22.366C28.8535 22.2672 28.5785 22.2328 28.4453 22.3015Z" fill="white"/>
</svg>
