<svg width="80" height="80" viewBox="0 0 80 80" fill="none" xmlns="http://www.w3.org/2000/svg">
<rect width="80" height="80" rx="40" fill="#E8F2FC"/>
<rect x="10" y="10" width="60" height="60" rx="30" fill="#DBEBFB"/>
<g clip-path="url(#clip0_2460_2741)">
<path d="M39.3722 25.123C39.1085 25.2051 38.9269 25.3164 38.7159 25.5156C38.2999 25.9023 34.0519 31.1816 33.8937 31.5039C33.7062 31.8789 33.7062 32.6992 33.8878 33.0977C34.0636 33.4844 34.4503 33.877 34.837 34.0645C35.1241 34.2051 35.2472 34.2285 35.8273 34.252L36.4835 34.2695V35.7461V37.2168L36.1144 37.5449C35.9151 37.7266 35.5929 38.084 35.4054 38.3418L35.0597 38.8105L34.8194 38.752C34.6847 38.7227 34.2394 38.6934 33.8175 38.6934C32.9679 38.6934 32.3292 38.8164 31.6144 39.1152C31.1105 39.3262 30.3487 39.7949 30.2726 39.9414C30.1144 40.2402 30.3019 40.5859 30.63 40.5859C30.7355 40.5859 30.9171 40.5098 31.0694 40.4043C31.462 40.1348 32.1241 39.8418 32.6456 39.7012C33.296 39.5254 34.3331 39.5254 34.9894 39.7012C36.4132 40.0762 37.5265 40.9785 38.171 42.2617L38.3526 42.6191L37.8605 42.6602C35.5226 42.8359 33.6358 44.1309 32.6398 46.2344C32.3116 46.9375 32.1476 47.5703 32.1065 48.3086C32.0655 49.0176 32.1007 49 31.4151 48.6074C30.2608 47.9512 29.4112 46.8027 29.0948 45.4668C28.9894 45.0332 28.9776 44.834 29.0011 44.2188C29.0362 43.375 29.1358 42.9766 29.4581 42.3027C29.7335 41.7285 29.7452 41.5234 29.5343 41.3535C29.2062 41.0957 28.9894 41.2539 28.6437 41.9746C28.2921 42.7129 28.1573 43.2871 28.1222 44.1719L28.087 44.916L27.9171 44.9863C27.3839 45.2031 26.4933 45.9414 26.0831 46.5098C24.5304 48.6191 24.671 51.4199 26.4288 53.2832C27.2608 54.168 28.2628 54.707 29.4347 54.9121C30.9405 55.1758 32.4933 54.748 33.6827 53.752L34.0929 53.4062L34.421 53.6699C35.5753 54.5664 36.7589 54.9648 38.2706 54.959C39.0323 54.959 39.2257 54.9355 39.7355 54.8008C41.2706 54.3965 42.5714 53.4531 43.4386 52.1172L43.6905 51.7246L44.0714 51.9004C44.5812 52.1289 45.2843 52.293 45.9874 52.3398L46.5675 52.3809L46.6905 52.6211C47.2823 53.8047 48.4366 54.6543 49.7901 54.9121C50.3702 55.0176 50.7862 55.0234 51.3722 54.918C52.2804 54.7539 52.9952 54.3672 53.7101 53.6523C54.4952 52.873 54.9112 51.9414 54.9815 50.8398C55.0343 49.9316 54.8292 49.082 54.3605 48.3145L54.1319 47.9395L54.2784 47.7051C54.7765 46.8965 54.964 46.2461 54.964 45.2734C54.9698 44.6641 54.9464 44.4648 54.8292 44.1016C54.5831 43.3047 54.2667 42.7832 53.6808 42.1914C53.2355 41.7402 53.0655 41.6172 52.5968 41.3887C52.2921 41.2363 51.8468 41.0605 51.6065 41.002L51.173 40.8965L51.0616 40.6152C50.7335 39.7832 49.9308 38.7988 49.1398 38.2598C47.8214 37.3633 46.0226 37.1172 44.5226 37.6211L44.13 37.7559L43.8253 37.4922L43.5147 37.2227V35.7461V34.2695L44.1769 34.252C44.7511 34.2285 44.8741 34.2051 45.1612 34.0645C45.548 33.877 45.9347 33.4844 46.1105 33.0977C46.2921 32.6992 46.2921 31.8789 46.1046 31.5039C45.9815 31.2461 44.3644 29.2012 44.1769 29.0547C44.0245 28.9434 43.8136 28.9727 43.6612 29.1309C43.3917 29.3945 43.4444 29.5117 44.3702 30.6543C44.8448 31.2344 45.2667 31.791 45.3077 31.8965C45.4132 32.1426 45.4132 32.4531 45.3019 32.7168C45.0733 33.2617 44.798 33.373 43.7433 33.3789C42.5772 33.3789 42.671 33.2383 42.6476 35.125L42.63 36.6484L42.2315 36.4785C41.4991 36.168 40.878 36.0508 39.9991 36.0508C39.1202 36.0508 38.4991 36.168 37.7667 36.4785L37.3683 36.6484L37.3507 35.125C37.3272 33.2383 37.4151 33.3789 36.2726 33.3789C35.2413 33.3789 34.9718 33.2734 34.7198 32.7812C34.5792 32.5059 34.5792 32.1191 34.714 31.8555C34.7726 31.7441 35.8272 30.4023 37.0636 28.873C39.4601 25.9141 39.4952 25.8789 39.9991 25.8789C40.4444 25.8789 40.6319 26.0371 41.5401 27.1562C42.0089 27.7363 42.4366 28.2227 42.4894 28.2461C42.671 28.3164 42.8175 28.2812 42.9581 28.1348C43.2159 27.8828 43.169 27.7715 42.2784 26.6699C41.2999 25.457 41.1007 25.2695 40.5968 25.1172C40.1339 24.9707 39.8409 24.9766 39.3722 25.123ZM41.2765 37.0703C42.6241 37.4512 43.7726 38.418 44.3702 39.6777C44.7276 40.4336 44.8272 40.8789 44.8272 41.7578C44.8272 42.6309 44.7276 43.0762 44.3702 43.8379C44.1476 44.3125 43.462 45.2734 43.3507 45.2734C43.3272 45.2734 43.1397 45.0742 42.9405 44.834C42.1378 43.8672 40.9366 43.123 39.7179 42.8301L39.3077 42.7363L39.1202 42.2441C38.6632 41.0312 37.5382 39.8301 36.337 39.2617C36.1437 39.168 35.9737 39.0859 35.962 39.0801C35.9503 39.0742 36.0851 38.8867 36.2667 38.6641C36.8937 37.8848 37.9718 37.2285 38.9972 37.0059C39.6476 36.8594 40.6495 36.8887 41.2765 37.0703ZM47.1769 38.3535C48.0792 38.5703 48.7706 38.9805 49.421 39.6777C49.8956 40.1875 50.2589 40.8379 50.4405 41.5059C50.5812 42.0508 50.6105 43.0879 50.4933 43.5566L50.4171 43.8555L50.0011 43.4219C49.046 42.4082 47.8155 41.8516 46.4093 41.7754L45.7589 41.7402L45.6886 41.1367C45.6007 40.3809 45.3429 39.5664 45.003 38.9688C44.8624 38.7168 44.7687 38.4883 44.7921 38.4648C44.8917 38.3652 45.6065 38.2539 46.1515 38.248C46.5147 38.2422 46.8722 38.2832 47.1769 38.3535ZM52.1866 42.1562C52.796 42.4551 53.4288 43.0879 53.7276 43.6973C54.255 44.7695 54.2374 45.8711 53.6866 46.9609L53.5284 47.2715L53.1651 47.0137C52.6788 46.668 52.4855 46.5684 51.8937 46.3867C51.4659 46.252 51.3956 46.2109 51.378 46.0879C51.3663 46.0117 51.2843 45.6953 51.1847 45.3848L51.0089 44.8281L51.1847 44.3008C51.4015 43.6445 51.5069 42.8652 51.4601 42.2969L51.419 41.8633L51.5831 41.8984C51.671 41.9219 51.9464 42.0332 52.1866 42.1562ZM46.9952 42.7188C48.7999 43.0645 50.2003 44.4883 50.5167 46.2988C50.628 46.9434 50.628 47.1777 50.5167 47.8223C50.0773 50.3359 47.5987 51.9473 45.1319 51.3262C44.546 51.1797 44.0304 50.9512 44.0655 50.8574C44.0831 50.8105 44.1593 50.5586 44.2296 50.2949C44.3409 49.8848 44.3585 49.6621 44.3585 48.8184C44.3585 47.7461 44.2823 47.3184 43.9425 46.4688L43.796 46.0938L44.1593 45.7012C44.839 44.9688 45.337 44.0605 45.5362 43.1992C45.589 42.9707 45.6417 42.748 45.6593 42.707C45.6886 42.6074 46.4327 42.6133 46.9952 42.7188ZM39.5597 43.6914C41.9034 44.3125 43.5147 46.4043 43.5147 48.8184C43.5147 51.25 41.9093 53.3125 39.5245 53.9512C38.839 54.1387 37.6085 54.1387 36.923 53.9512C34.9601 53.4238 33.4659 51.8535 33.0499 49.8789C32.9386 49.3398 32.9386 48.291 33.0499 47.752C33.5069 45.584 35.2589 43.9258 37.462 43.5742C37.9835 43.4922 39.0206 43.5508 39.5597 43.6914ZM28.3097 45.959C28.6964 47.5059 30.0851 49.0645 31.6319 49.6973C31.9952 49.8438 32.13 49.9316 32.1593 50.0312C32.5343 51.2617 32.7335 51.7129 33.1788 52.3516C33.3194 52.5566 33.4366 52.7441 33.4366 52.7734C33.4366 52.8848 32.6866 53.4355 32.2355 53.6523C31.5323 53.9922 31.1222 54.0859 30.3019 54.0859C29.7511 54.0859 29.4991 54.0566 29.1417 53.957C27.296 53.4297 26.0128 51.8477 25.8956 49.9609C25.8194 48.748 26.2765 47.5234 27.1261 46.627C27.3605 46.3867 28.1339 45.8008 28.2218 45.8008C28.2511 45.8008 28.2862 45.8711 28.3097 45.959ZM52.298 47.5C54.255 48.543 54.712 51.2734 53.212 52.9375C51.7296 54.5723 49.0929 54.4668 47.7862 52.7207C47.3937 52.1934 47.3937 52.2109 47.7569 52.1055C48.2491 51.959 48.9874 51.5664 49.462 51.1855C50.4991 50.3652 51.2023 49.1582 51.3956 47.8633C51.4425 47.5527 51.4835 47.2656 51.4835 47.2246C51.4835 47.1367 51.8292 47.248 52.298 47.5Z" fill="#4F9EEA"/>
</g>
<defs>
<clipPath id="clip0_2460_2741">
<rect width="30" height="30" fill="white" transform="translate(25 25)"/>
</clipPath>
</defs>
</svg>
