<svg width="80" height="80" viewBox="0 0 80 80" fill="none" xmlns="http://www.w3.org/2000/svg">
<rect width="80" height="80" rx="40" fill="#E8F2FC"/>
<rect x="10" y="10" width="60" height="60" rx="30" fill="#DBEBFB"/>
<g clip-path="url(#clip0_3751_2422)">
<path d="M26.4336 25.0527C25.9062 25.1816 25.4258 25.5801 25.1738 26.084L25.0273 26.377V34.375V42.373L25.1621 42.6367C25.3672 43.0586 25.6016 43.3047 26.0059 43.5215L26.375 43.7207L29.4395 43.7383L32.498 43.7559V45.0098V46.2695H31.8828H31.2676V46.8848V47.5H33.7578H36.248V46.8848V46.2695L35.0059 46.2578L33.7578 46.2402L33.7402 44.998L33.7285 43.75H34.373H35.0176V43.1348V42.5195H30.9102C27.2891 42.5195 26.7793 42.5078 26.6094 42.4258C26.2051 42.2324 26.2285 42.7656 26.2285 34.375C26.2285 25.9844 26.2051 26.5176 26.6094 26.3242C26.7852 26.2422 27.875 26.2305 37.4727 26.2305C48.9863 26.2305 48.4121 26.2129 48.6348 26.5293C48.7168 26.6523 48.7285 27.1914 48.7285 32.3945V38.125H49.373H50.0176L50.0059 32.3066C49.9883 26.8047 49.9824 26.4766 49.877 26.2129C49.7305 25.8262 49.2676 25.3398 48.8926 25.1699L48.582 25.0293L37.5957 25.0176C31.5547 25.0176 26.5332 25.0293 26.4336 25.0527Z" fill="#4F9EEA"/>
<path d="M33.7812 27.5957C32.8145 27.959 32.293 28.9609 32.5801 29.8926L32.6738 30.1855L31.4258 31.4277L30.1836 32.6758L30.623 33.1152L31.0625 33.5547L32.2988 32.3183L33.5352 31.082L33.957 31.1816C34.3496 31.2812 34.3965 31.2812 34.7891 31.1816L35.2109 31.082L36.1309 32.0019L37.0566 32.9277L36.9746 33.1621C36.8633 33.4726 36.8691 34 36.9922 34.375C37.1152 34.7617 37.5137 35.2129 37.9121 35.4121C38.3398 35.6289 38.9668 35.664 39.4238 35.4883C40.2852 35.166 40.7891 34.1816 40.5547 33.291L40.4609 32.9453L41.3867 32.0195L42.3184 31.0879L42.6875 31.1875C42.9336 31.2461 43.1562 31.2695 43.332 31.2402C44.0117 31.1406 44.6328 30.6601 44.8613 30.0508C45.0371 29.5937 45.002 28.9668 44.7852 28.539C44.0938 27.1855 42.1191 27.1797 41.4688 28.5332C41.2344 29.0195 41.1934 29.3476 41.3105 29.8105L41.4102 30.1797L40.4844 31.1054L39.5586 32.0312L39.1602 31.9375C38.7734 31.8379 38.5625 31.8554 38.0352 32.0019C37.9414 32.0312 37.7246 31.8437 36.998 31.1113L36.0723 30.1855L36.166 29.8926C36.4297 29.0547 36.0078 28.1172 35.1816 27.6894C34.8652 27.5254 34.1035 27.4785 33.7812 27.5957ZM34.6719 28.8437C35.2168 29.125 34.9941 29.9804 34.3789 29.9804C33.7695 29.9804 33.5234 29.1777 34.0449 28.8613C34.2676 28.7265 34.4375 28.7207 34.6719 28.8437ZM43.5488 28.9316C43.8418 29.2012 43.7656 29.7578 43.4199 29.916C42.8516 30.1738 42.3242 29.6523 42.582 29.084C42.7344 28.7441 43.2617 28.6621 43.5488 28.9316ZM39.1836 33.3144C39.4707 33.6074 39.3945 34.0937 39.0312 34.2871C38.6621 34.4922 38.2109 34.2637 38.1406 33.8301C38.0527 33.2617 38.7734 32.9043 39.1836 33.3144Z" fill="#4F9EEA"/>
<path d="M27.5156 36.25V36.8945H28.1309H28.7461V36.25V35.6055H28.1309H27.5156V36.25Z" fill="#4F9EEA"/>
<path d="M42.0917 36.3145C39.5722 36.6836 37.4628 38.4238 36.6191 40.8379C36.0449 42.4844 36.1503 44.3301 36.9179 45.9531C37.2519 46.6504 37.5742 47.1191 38.1191 47.6934C39.2675 48.9004 40.6855 49.6035 42.3847 49.791C43.9843 49.9727 45.8124 49.4629 47.1074 48.4727L47.3652 48.2734L48.0214 48.9297L48.6777 49.5859L48.5488 49.7031C48.2851 49.9375 48.0859 50.2656 48.0859 50.4824C48.0859 50.6758 48.2089 50.8164 50.2128 52.8203C52.2343 54.8418 52.3515 54.9531 52.5917 54.9824L52.8437 55.0176L53.9218 53.9395C54.9589 52.9023 54.9999 52.8496 54.9999 52.627C54.9999 52.3984 54.9531 52.3457 52.8437 50.2422C50.8163 48.209 50.6816 48.0859 50.4824 48.0859C50.2656 48.0859 49.9374 48.2793 49.7031 48.5488L49.5859 48.6777L48.9296 48.0215L48.2734 47.3652L48.4726 47.1074C49.1992 46.1582 49.662 44.9453 49.791 43.6621C50.0722 40.9199 48.5663 38.2246 46.0468 36.959C44.8984 36.3789 43.3515 36.127 42.0917 36.3145ZM44.33 37.6562C46.246 38.1191 47.7695 39.5605 48.3554 41.4941C48.5078 41.9805 48.5195 42.1035 48.5195 43.0176C48.5253 43.8906 48.5078 44.0723 48.3906 44.4766C47.9335 46.0527 46.914 47.2891 45.4667 48.0215C44.2831 48.6133 42.5722 48.7305 41.3007 48.2969C38.5117 47.3477 36.9472 44.459 37.6855 41.6172C38.166 39.7656 39.7011 38.2188 41.5644 37.709C42.4726 37.457 43.4218 37.4395 44.33 37.6562ZM53.0546 53.0488L52.6269 53.4766L51.121 51.9707L49.6093 50.459L50.0312 50.0371L50.4589 49.6094L51.9648 51.1152L53.4765 52.627L53.0546 53.0488Z" fill="#4F9EEA"/>
<path d="M43.1016 39.3672V39.9824L43.459 40.0234C44.1914 40.1055 44.9824 40.5098 45.4453 41.043C45.75 41.3828 46.1309 42.1504 46.1777 42.502C46.1953 42.6602 46.2305 42.8535 46.2422 42.9414L46.2773 43.1055H46.8926H47.5137L47.4727 42.6895C47.2676 40.6504 45.5625 38.9395 43.5703 38.7871L43.1016 38.752V39.3672Z" fill="#4F9EEA"/>
<path d="M27.5156 38.9102C27.5156 39.8711 27.5977 40.1758 27.9727 40.5977C28.1191 40.7559 28.3711 40.9551 28.5352 41.043C28.8164 41.1895 28.8926 41.2012 29.7305 41.2188L30.6211 41.2422V40.627V40.0117L29.8594 39.9883C29.1211 39.9707 29.0977 39.9648 28.9395 39.8066C28.7813 39.6484 28.7754 39.625 28.7578 38.8867L28.7344 38.125H28.125H27.5156V38.9102Z" fill="#4F9EEA"/>
</g>
<defs>
<clipPath id="clip0_3751_2422">
<rect width="30" height="30" fill="white" transform="translate(25 25)"/>
</clipPath>
</defs>
</svg>
