<svg width="80" height="80" viewBox="0 0 80 80" fill="none" xmlns="http://www.w3.org/2000/svg">
<rect width="80" height="80" rx="40" fill="#E8F2FC"/>
<rect x="10" y="10" width="60" height="60" rx="30" fill="#DBEBFB"/>
<g clip-path="url(#clip0_2460_2738)">
<path d="M46.0353 25.0879C44.6935 25.2812 43.4865 25.791 42.3732 26.6289C41.7931 27.0625 26.9396 41.9453 26.5412 42.4961C24.7599 44.9277 24.5256 48.1621 25.9494 50.8398C27.4611 53.6934 30.672 55.3516 33.8478 54.9238C35.2775 54.7305 36.4728 54.2383 37.6271 53.3711C38.0138 53.0781 52.2873 38.8633 52.9845 38.0723C53.8869 37.0527 54.4787 35.9336 54.7658 34.7031C55.6857 30.7949 53.5646 26.8633 49.7795 25.4687C48.7131 25.0703 47.1838 24.918 46.0353 25.0879ZM48.4259 26.5234C49.4045 26.7227 50.2072 27.0801 50.9865 27.666C52.3927 28.7148 53.2834 30.1855 53.5646 31.9316C53.84 33.6133 53.3888 35.3945 52.34 36.7773C52.1115 37.0762 50.6056 38.6348 48.5138 40.7148L45.0685 44.1602L40.4689 39.5605L35.8693 34.9609L39.4142 31.4277C41.547 29.3008 43.1173 27.7832 43.3576 27.6133C44.1193 27.0801 45.0568 26.6758 45.9533 26.5C46.5802 26.3711 47.758 26.3828 48.4259 26.5234ZM39.5607 40.4687L44.131 45.0391L40.6447 48.5312C38.7287 50.4531 36.9591 52.1758 36.7189 52.3574C34.0939 54.332 30.4142 54.0039 28.1349 51.5957C26.0666 49.4102 25.7795 46.0996 27.4377 43.5566C27.6427 43.2402 28.6388 42.209 31.3224 39.5137C33.3088 37.5273 34.9435 35.8984 34.9611 35.8984C34.9787 35.8984 37.047 37.9551 39.5607 40.4687Z" fill="#4F9EEA"/>
<path d="M46.4456 28.4336C45.2093 28.586 44.178 29.0196 43.2581 29.7813C42.8187 30.1446 42.6663 30.4141 42.7249 30.7188C42.7718 30.9883 43.053 31.211 43.3343 31.211C43.5628 31.211 43.5921 31.1934 44.2894 30.6602C45.1155 30.0274 45.8714 29.7813 46.9729 29.7813C47.5589 29.7813 47.7991 29.8047 48.1683 29.9102C48.7952 30.0918 49.4339 30.4317 49.9261 30.8535C50.3597 31.2227 50.5179 31.2871 50.7991 31.2051C51.2034 31.0879 51.3909 30.7071 51.2327 30.3203C51.1331 30.0801 50.5296 29.5528 49.9905 29.2364C49.5042 28.9492 48.7483 28.6563 48.2327 28.5449C47.7815 28.4512 46.7972 28.3926 46.4456 28.4336Z" fill="#4F9EEA"/>
</g>
<defs>
<clipPath id="clip0_2460_2738">
<rect width="30" height="30" fill="white" transform="translate(25 25)"/>
</clipPath>
</defs>
</svg>
