<svg width="169" height="50" viewBox="0 0 169 50" fill="none" xmlns="http://www.w3.org/2000/svg">
<path d="M162.5 0H6.25C2.79822 0 0 2.79822 0 6.25V43.75C0 47.2018 2.79822 50 6.25 50H162.5C165.952 50 168.75 47.2018 168.75 43.75V6.25C168.75 2.79822 165.952 0 162.5 0Z" fill="black"/>
<path d="M162.5 1C163.892 1 165.228 1.55312 166.212 2.53769C167.197 3.52226 167.75 4.85761 167.75 6.25V43.75C167.75 45.1424 167.197 46.4777 166.212 47.4623C165.228 48.4469 163.892 49 162.5 49H6.25C4.85761 49 3.52225 48.4469 2.53769 47.4623C1.55312 46.4777 1 45.1424 1 43.75V6.25C1 4.85761 1.55312 3.52226 2.53769 2.53769C3.52225 1.55312 4.85761 1 6.25 1H162.5ZM162.5 0H6.25C4.5924 0 3.00268 0.65848 1.83058 1.83058C0.65848 3.00269 0 4.5924 0 6.25V43.75C0 45.4076 0.65848 46.9973 1.83058 48.1694C3.00268 49.3415 4.5924 50 6.25 50H162.5C164.158 50 165.747 49.3415 166.919 48.1694C168.092 46.9973 168.75 45.4076 168.75 43.75V6.25C168.75 4.5924 168.092 3.00269 166.919 1.83058C165.747 0.65848 164.158 0 162.5 0Z" fill="#A6A6A6"/>
<path d="M59.2739 12.8001C59.2951 13.2586 59.223 13.7166 59.0618 14.1463C58.9007 14.5761 58.6539 14.9686 58.3364 15.3001C57.9819 15.6683 57.5538 15.9577 57.0799 16.1494C56.6061 16.3411 56.0972 16.4308 55.5864 16.4126C54.8114 16.4065 54.0554 16.1719 53.4131 15.738C52.7709 15.3042 52.271 14.6904 51.976 13.9737C51.681 13.257 51.6041 12.4692 51.755 11.7089C51.9058 10.9487 52.2776 10.2499 52.8239 9.70009C53.1829 9.33357 53.6133 9.04461 54.0885 8.85111C54.5636 8.6576 55.0734 8.56366 55.5864 8.57509C56.1148 8.57333 56.638 8.67967 57.1239 8.88759C57.5762 9.07003 57.9789 9.35703 58.2989 9.72509L57.6364 10.3876C57.3869 10.0908 57.0718 9.85616 56.716 9.70213C56.3602 9.5481 55.9735 9.47893 55.5864 9.50009C55.1959 9.49817 54.8091 9.57512 54.4491 9.72632C54.0891 9.87752 53.7634 10.0999 53.4914 10.38C53.2194 10.6602 53.0068 10.9923 52.8664 11.3566C52.7259 11.7209 52.6604 12.1099 52.6739 12.5001C52.6657 13.0828 52.8302 13.6548 53.1468 14.144C53.4633 14.6333 53.9177 15.0178 54.4525 15.2492C54.9874 15.4805 55.5788 15.5482 56.1521 15.4438C56.7254 15.3394 57.2549 15.0676 57.6739 14.6626C58.0585 14.2458 58.2804 13.7045 58.2989 13.1376H55.5864V12.2376H59.2239C59.2572 12.4232 59.2739 12.6115 59.2739 12.8001ZM64.9989 9.67509H61.6239V12.0501H64.6989V12.9501H61.6239V15.3251H64.9989V16.2501H60.6239V8.75009H64.9989V9.67509ZM69.0989 16.2501H68.1364V9.67509H66.0364V8.75009H71.2489V9.67509H69.0989V16.2501ZM74.9239 16.2501V8.75009H75.8864V16.2501H74.9239ZM80.1614 16.2501H79.1989V9.67509H77.0989V8.75009H82.2489V9.67509H80.1614V16.2501ZM92.0114 15.2751C91.2806 16.0018 90.2919 16.4097 89.2614 16.4097C88.2308 16.4097 87.2421 16.0018 86.5114 15.2751C85.8011 14.5232 85.4054 13.5281 85.4054 12.4938C85.4054 11.4595 85.8011 10.4644 86.5114 9.71259C86.8716 9.34977 87.3 9.06181 87.772 8.8653C88.2439 8.66879 88.7501 8.56763 89.2614 8.56763C89.7726 8.56763 90.2788 8.66879 90.7508 8.8653C91.2228 9.06181 91.6512 9.34977 92.0114 9.71259C92.7245 10.463 93.1221 11.4586 93.1221 12.4938C93.1221 13.529 92.7245 14.5247 92.0114 15.2751ZM87.2239 14.6501C87.765 15.189 88.4977 15.4916 89.2614 15.4916C90.0251 15.4916 90.7577 15.189 91.2989 14.6501C91.8329 14.0614 92.1287 13.2949 92.1287 12.5001C92.1287 11.7052 91.8329 10.9388 91.2989 10.3501C90.7577 9.81118 90.0251 9.50862 89.2614 9.50862C88.4977 9.50862 87.765 9.81118 87.2239 10.3501C86.6898 10.9388 86.394 11.7052 86.394 12.5001C86.394 13.2949 86.6898 14.0614 87.2239 14.6501ZM94.4739 16.2501V8.75009H95.6489L99.2989 14.5876V8.75009H100.261V16.2501H99.2614L95.4489 10.1376V16.2501H94.4739Z" fill="white" stroke="white" stroke-width="0.2" stroke-miterlimit="10"/>
<path d="M85.1737 27.1879C84.124 27.1928 83.0994 27.5086 82.229 28.0953C81.3587 28.6821 80.6817 29.5135 80.2834 30.4846C79.8851 31.4558 79.7835 32.5232 79.9913 33.552C80.1991 34.5809 80.707 35.5252 81.451 36.2656C82.1949 37.0061 83.1416 37.5096 84.1714 37.7126C85.2012 37.9155 86.2681 37.8089 87.2374 37.4061C88.2067 37.0032 89.0349 36.3223 89.6175 35.4492C90.2002 34.5762 90.5111 33.55 90.5112 32.5004C90.5214 31.7978 90.3901 31.1004 90.1251 30.4496C89.8602 29.7988 89.467 29.208 88.969 28.7123C88.471 28.2166 87.8783 27.8262 87.2263 27.5643C86.5742 27.3024 85.8762 27.1744 85.1737 27.1879ZM85.1737 35.7254C84.5281 35.7705 83.884 35.6204 83.3249 35.2946C82.7658 34.9688 82.3176 34.4823 82.0387 33.8984C81.7597 33.3145 81.6629 32.6602 81.7607 32.0206C81.8586 31.3809 82.1466 30.7855 82.5874 30.3117C83.0281 29.8379 83.6012 29.5076 84.2321 29.3639C84.863 29.2201 85.5226 29.2694 86.1251 29.5055C86.7276 29.7416 87.2452 30.1534 87.6105 30.6875C87.9759 31.2216 88.1721 31.8533 88.1737 32.5004C88.1938 32.9104 88.1316 33.3203 87.9908 33.7059C87.85 34.0915 87.6334 34.445 87.3538 34.7456C87.0742 35.0462 86.7373 35.2877 86.3628 35.456C85.9884 35.6243 85.5841 35.7159 85.1737 35.7254ZM73.5362 27.1879C72.486 27.1904 71.4601 27.504 70.5881 28.0893C69.7161 28.6745 69.0371 29.5051 68.637 30.476C68.2368 31.447 68.1334 32.5147 68.3398 33.5444C68.5462 34.5741 69.0531 35.5196 69.7966 36.2613C70.54 37.003 71.4866 37.5077 72.5168 37.7117C73.547 37.9157 74.6145 37.8097 75.5845 37.4073C76.5545 37.0048 77.3835 36.3239 77.9667 35.4506C78.5499 34.5772 78.8611 33.5506 78.8612 32.5004C78.8713 31.7978 78.7401 31.1004 78.4751 30.4496C78.2102 29.7988 77.817 29.208 77.319 28.7123C76.821 28.2166 76.2283 27.8262 75.5763 27.5643C74.9242 27.3024 74.2262 27.1744 73.5237 27.1879H73.5362ZM73.5362 35.7254C72.8903 35.7731 72.2451 35.6252 71.6844 35.3011C71.1238 34.9769 70.6737 34.4915 70.3928 33.908C70.1119 33.3245 70.0132 32.6699 70.1095 32.0296C70.2058 31.3892 70.4927 30.7926 70.9328 30.3175C71.3729 29.8424 71.9458 29.5108 72.577 29.3659C73.2082 29.221 73.8684 29.2695 74.4716 29.505C75.0748 29.7405 75.5932 30.1522 75.9592 30.6865C76.3252 31.2207 76.5219 31.8528 76.5237 32.5004C76.5438 32.9104 76.4816 33.3203 76.3408 33.7059C76.2 34.0915 75.9834 34.445 75.7038 34.7456C75.4242 35.0462 75.0873 35.2877 74.7128 35.456C74.3384 35.6243 73.9341 35.7159 73.5237 35.7254H73.5362ZM59.6737 28.8254V31.0754H65.0737C64.989 32.1351 64.5485 33.1351 63.8237 33.9129C63.2834 34.4632 62.6339 34.8943 61.9171 35.1785C61.2002 35.4626 60.4317 35.5936 59.6612 35.5629C58.0699 35.5629 56.5437 34.9307 55.4185 33.8055C54.2933 32.6803 53.6612 31.1542 53.6612 29.5629C53.6612 27.9716 54.2933 26.4455 55.4185 25.3203C56.5437 24.195 58.0699 23.5629 59.6612 23.5629C61.1834 23.5381 62.6534 24.118 63.7487 25.1754L65.3362 23.5879C64.5968 22.8392 63.7146 22.2465 62.7419 21.845C61.7693 21.4435 60.7259 21.2413 59.6737 21.2504C58.5624 21.2071 57.4539 21.3887 56.4144 21.7841C55.375 22.1795 54.4261 22.7807 53.6246 23.5517C52.8231 24.3226 52.1855 25.2474 51.7499 26.2706C51.3143 27.2939 51.0898 28.3945 51.0898 29.5066C51.0898 30.6187 51.3143 31.7194 51.7499 32.7426C52.1855 33.7659 52.8231 34.6907 53.6246 35.4616C54.4261 36.2326 55.375 36.8337 56.4144 37.2292C57.4539 37.6246 58.5624 37.8061 59.6737 37.7629C60.7436 37.8112 61.8115 37.6299 62.8055 37.231C63.7994 36.8321 64.6965 36.2249 65.4362 35.4504C66.7458 34.0115 67.445 32.1201 67.3862 30.1754C67.3902 29.7016 67.3483 29.2286 67.2612 28.7629L59.6737 28.8254ZM116.311 30.5754C115.985 29.6163 115.376 28.7789 114.563 28.174C113.751 27.569 112.773 27.2252 111.761 27.1879C111.077 27.1866 110.401 27.3255 109.773 27.5961C109.145 27.8666 108.579 28.2631 108.11 28.7611C107.642 29.259 107.28 29.8477 107.048 30.4909C106.816 31.134 106.718 31.818 106.761 32.5004C106.746 33.199 106.872 33.8936 107.131 34.5425C107.39 35.1914 107.778 35.7815 108.27 36.2774C108.762 36.7732 109.35 37.1648 109.997 37.4286C110.644 37.6924 111.337 37.8231 112.036 37.8129C112.911 37.8176 113.772 37.6054 114.545 37.1953C115.317 36.7852 115.975 36.1899 116.461 35.4629L114.649 34.2129C114.378 34.6639 113.995 35.0369 113.537 35.2954C113.079 35.554 112.562 35.6892 112.036 35.6879C111.495 35.7085 110.96 35.5658 110.5 35.2782C110.041 34.9906 109.679 34.5715 109.461 34.0754L116.574 31.1379L116.311 30.5754ZM109.061 32.3504C109.036 31.9638 109.088 31.576 109.214 31.2097C109.341 30.8434 109.539 30.5061 109.797 30.2174C110.056 29.9287 110.369 29.6945 110.719 29.5284C111.069 29.3624 111.449 29.2679 111.836 29.2504C112.239 29.2238 112.641 29.3163 112.993 29.5163C113.344 29.7163 113.628 30.015 113.811 30.3754L109.061 32.3504ZM103.286 37.5004H105.624V21.8754H103.286V37.5004ZM99.4612 28.3754H99.3737C99.0214 27.9815 98.5898 27.6665 98.1073 27.4511C97.6247 27.2357 97.1021 27.1247 96.5737 27.1254C95.2076 27.1916 93.9195 27.7809 92.9761 28.7711C92.0328 29.7613 91.5066 31.0765 91.5066 32.4441C91.5066 33.8118 92.0328 35.127 92.9761 36.1172C93.9195 37.1074 95.2076 37.6966 96.5737 37.7629C97.1034 37.7718 97.6286 37.6645 98.1123 37.4485C98.5961 37.2326 99.0266 36.9132 99.3737 36.5129H99.4487V37.2754C99.4487 39.3129 98.3612 40.4004 96.6112 40.4004C96.0283 40.3867 95.4627 40.2 94.9863 39.8638C94.51 39.5277 94.1444 39.0574 93.9362 38.5129L91.8987 39.3629C92.2822 40.2958 92.9357 41.0929 93.7753 41.652C94.615 42.211 95.6025 42.5064 96.6112 42.5004C99.3487 42.5004 101.611 40.8879 101.611 36.9629V27.5004H99.4612V28.3754ZM96.7862 35.7254C95.9798 35.6543 95.2294 35.2838 94.6827 34.6869C94.1361 34.0899 93.8329 33.3098 93.8329 32.5004C93.8329 31.691 94.1361 30.9109 94.6827 30.3139C95.2294 29.717 95.9798 29.3464 96.7862 29.2754C97.1859 29.2959 97.5776 29.3962 97.938 29.5704C98.2984 29.7446 98.6203 29.9892 98.8847 30.2898C99.1491 30.5903 99.3507 30.9407 99.4777 31.3204C99.6046 31.7 99.6542 32.1013 99.6236 32.5004C99.6578 32.9013 99.6102 33.3049 99.4839 33.6868C99.3575 34.0688 99.155 34.4212 98.8886 34.7226C98.6222 35.0241 98.2974 35.2684 97.9339 35.4407C97.5704 35.6131 97.1757 35.7099 96.7737 35.7254H96.7862ZM127.261 21.8754H121.674V37.5004H124.011V31.5754H127.274C127.94 31.6232 128.609 31.5334 129.239 31.3113C129.869 31.0892 130.446 30.7398 130.935 30.2848C131.424 29.8297 131.814 29.2788 132.08 28.6664C132.347 28.054 132.485 27.3933 132.485 26.7254C132.485 26.0575 132.347 25.3967 132.08 24.7844C131.814 24.172 131.424 23.6211 130.935 23.166C130.446 22.711 129.869 22.3615 129.239 22.1395C128.609 21.9174 127.94 21.8275 127.274 21.8754H127.261ZM127.261 29.3754H123.999V24.0504H127.311C128.022 24.0504 128.704 24.3329 129.207 24.8357C129.71 25.3385 129.992 26.0205 129.992 26.7316C129.992 27.4428 129.71 28.1247 129.207 28.6276C128.704 29.1304 128.022 29.4129 127.311 29.4129L127.261 29.3754ZM141.674 27.1254C140.823 27.0745 139.975 27.2734 139.236 27.6975C138.496 28.1217 137.897 28.7527 137.511 29.5129L139.586 30.3754C139.791 29.9983 140.101 29.6889 140.478 29.4847C140.855 29.2805 141.284 29.1904 141.711 29.2254C142.008 29.1907 142.309 29.2155 142.596 29.2983C142.883 29.3811 143.15 29.5202 143.383 29.7075C143.616 29.8949 143.809 30.1267 143.951 30.3894C144.093 30.6522 144.182 30.9406 144.211 31.2379V31.4004C143.46 31.0029 142.623 30.7968 141.774 30.8004C139.536 30.8004 137.274 32.0504 137.274 34.3129C137.296 34.7953 137.414 35.2684 137.622 35.7042C137.83 36.14 138.124 36.5297 138.485 36.8501C138.846 37.1706 139.268 37.4154 139.726 37.57C140.183 37.7247 140.667 37.786 141.149 37.7504C141.737 37.7927 142.326 37.6757 142.854 37.4118C143.382 37.1478 143.829 36.7467 144.149 36.2504H144.224V37.5004H146.474V31.4879C146.474 28.7504 144.399 27.1629 141.736 27.1629L141.674 27.1254ZM141.386 35.6879C140.624 35.6879 139.561 35.3004 139.561 34.3629C139.561 33.1129 140.886 32.7004 142.061 32.7004C142.804 32.6821 143.538 32.8634 144.186 33.2254C144.108 33.9021 143.788 34.5278 143.285 34.9872C142.782 35.4466 142.13 35.7088 141.449 35.7254L141.386 35.6879ZM154.674 27.5004L151.999 34.2754H151.924L149.149 27.5004H146.649L150.811 36.9754L148.436 42.2379H150.874L157.274 27.5004H154.674ZM133.661 37.5004H135.999V21.8754H133.661V37.5004Z" fill="white"/>
<path d="M13.0482 9.42515C12.6408 9.91403 12.4352 10.5399 12.4732 11.1751V38.8251C12.4352 39.4604 12.6408 40.0863 13.0482 40.5751L13.1357 40.6626L28.6232 25.1876V24.8251L13.1357 9.33765L13.0482 9.42515Z" fill="url(#paint0_linear_2040_1575)"/>
<path d="M33.75 30.3504L28.625 25.1879V24.8254L33.75 19.6504L33.8625 19.7129L40 23.2004C41.75 24.1879 41.75 25.8129 40 26.8129L33.8875 30.2879L33.75 30.3504Z" fill="url(#paint1_linear_2040_1575)"/>
<path d="M33.9008 30.275L28.6258 25L13.0508 40.575C13.4075 40.8886 13.8625 41.0677 14.3373 41.0814C14.812 41.0951 15.2766 40.9425 15.6508 40.65L33.9133 30.275" fill="url(#paint2_linear_2040_1575)"/>
<path d="M33.9016 19.7257L15.6391 9.35067C15.2649 9.05819 14.8003 8.90561 14.3255 8.9193C13.8508 8.933 13.3958 9.11211 13.0391 9.42567L28.6266 25.0007L33.9016 19.7257Z" fill="url(#paint3_linear_2040_1575)"/>
<path opacity="0.2" d="M33.7508 30.1619L15.6383 40.4744C15.2774 40.7442 14.8389 40.89 14.3883 40.89C13.9377 40.89 13.4992 40.7442 13.1383 40.4744L13.0508 40.5619L13.1383 40.6494C13.4984 40.9211 13.9372 41.0681 14.3883 41.0681C14.8394 41.0681 15.2782 40.9211 15.6383 40.6494L33.9008 30.2744L33.7508 30.1619Z" fill="black"/>
<path opacity="0.12" d="M13.0482 40.4C12.6408 39.9111 12.4352 39.2853 12.4732 38.65V38.8375C12.4352 39.4728 12.6408 40.0986 13.0482 40.5875L13.1357 40.5L13.0482 40.4ZM39.9982 26.625L33.7482 30.1625L33.8607 30.275L39.9982 26.8C40.3465 26.6364 40.6454 26.3839 40.8649 26.0678C41.0843 25.7518 41.2166 25.3835 41.2482 25C41.1779 25.3484 41.0287 25.676 40.812 25.9577C40.5953 26.2394 40.3169 26.4677 39.9982 26.625Z" fill="black"/>
<path opacity="0.25" d="M15.6359 9.52504L39.9984 23.375C40.3171 23.5323 40.5955 23.7606 40.8122 24.0423C41.0289 24.324 41.1781 24.6517 41.2484 25C41.2168 24.6166 41.0846 24.2483 40.8651 23.9322C40.6456 23.6162 40.3467 23.3636 39.9984 23.2L15.6359 9.35004C13.8859 8.36254 12.4609 9.18754 12.4609 11.1875V11.375C12.4984 9.36254 13.8984 8.53755 15.6359 9.52504Z" fill="white"/>
<defs>
<linearGradient id="paint0_linear_2040_1575" x1="27.2482" y1="10.8876" x2="6.27323" y2="31.8626" gradientUnits="userSpaceOnUse">
<stop stop-color="#00A0FF"/>
<stop offset="0.01" stop-color="#00A1FF"/>
<stop offset="0.26" stop-color="#00BEFF"/>
<stop offset="0.51" stop-color="#00D2FF"/>
<stop offset="0.76" stop-color="#00DFFF"/>
<stop offset="1" stop-color="#00E3FF"/>
</linearGradient>
<linearGradient id="paint1_linear_2040_1575" x1="42.2875" y1="25.0004" x2="12.05" y2="25.0004" gradientUnits="userSpaceOnUse">
<stop stop-color="#FFE000"/>
<stop offset="0.41" stop-color="#FFBD00"/>
<stop offset="0.78" stop-color="#FFA500"/>
<stop offset="1" stop-color="#FF9C00"/>
</linearGradient>
<linearGradient id="paint2_linear_2040_1575" x1="31.0383" y1="27.875" x2="2.58828" y2="56.3125" gradientUnits="userSpaceOnUse">
<stop stop-color="#FF3A44"/>
<stop offset="1" stop-color="#C31162"/>
</linearGradient>
<linearGradient id="paint3_linear_2040_1575" x1="9.12656" y1="0.225672" x2="21.8266" y2="12.9257" gradientUnits="userSpaceOnUse">
<stop stop-color="#32A071"/>
<stop offset="0.07" stop-color="#2DA771"/>
<stop offset="0.48" stop-color="#15CF74"/>
<stop offset="0.8" stop-color="#06E775"/>
<stop offset="1" stop-color="#00F076"/>
</linearGradient>
</defs>
</svg>
