<svg width="50" height="50" viewBox="0 0 50 50" fill="none" xmlns="http://www.w3.org/2000/svg">
<circle cx="25" cy="25" r="25" fill="white" fill-opacity="0.1"/>
<g clip-path="url(#clip0_2460_2800)">
<path d="M24.8027 14.043C24.7511 14.0602 24.5964 14.2106 24.4504 14.3738C23.9777 14.9109 21.6359 17.6652 21.1504 18.2539C18.28 21.7473 16.9308 24.1191 16.4839 26.4395C16.4109 26.8262 16.4109 28.1711 16.4882 28.6309C16.7933 30.5301 17.6011 32.1285 18.916 33.4477C21.3265 35.8539 24.8457 36.6316 28.0082 35.45C29.1726 35.016 30.1437 34.3844 31.0632 33.4691C32.3996 32.1285 33.2031 30.543 33.5125 28.6309C33.5898 28.1711 33.5898 26.8262 33.5168 26.4395C33.2332 24.9699 32.6488 23.625 31.5187 21.8418C30.655 20.4797 29.4605 18.9414 27.3636 16.4922C26.805 15.8434 26.1304 15.0484 25.864 14.7305C25.2754 14.0258 25.1078 13.9184 24.8027 14.043ZM26.1175 16.6512C29.4777 20.5742 30.6765 22.2027 31.6175 24.1191C32.2707 25.4512 32.5199 26.375 32.5199 27.4664C32.5199 30.616 30.4187 33.5078 27.3808 34.5348C25.2754 35.2438 23.0152 34.9902 21.0773 33.8258C20.3812 33.409 19.5175 32.6313 19.0148 31.9738C18.0394 30.6977 17.4808 29.0648 17.4808 27.475C17.4808 26.3406 17.7902 25.2836 18.5507 23.8184C19.4402 22.0996 20.725 20.3637 23.5394 17.0723C24.025 16.5051 24.5449 15.8906 24.6953 15.7059C24.8457 15.5254 24.9832 15.375 24.9961 15.375C25.0132 15.375 25.516 15.9508 26.1175 16.6512Z" fill="white"/>
<path d="M19.6044 27.1442C19.4024 27.2688 19.3551 27.4278 19.3852 27.9348C19.4239 28.6438 19.57 29.2324 19.8751 29.9199C20.6829 31.7117 22.2985 32.9106 24.2923 33.1942C24.9497 33.2844 25.2247 33.2586 25.3923 33.0953C25.5555 32.9321 25.5942 32.7129 25.4954 32.5067C25.4009 32.3047 25.2333 32.236 24.7864 32.1973C23.5059 32.0942 22.5005 31.6258 21.6712 30.7535C20.9149 29.9543 20.511 29.0219 20.4079 27.8274C20.3864 27.5782 20.3434 27.3375 20.3134 27.2903C20.1759 27.0668 19.8407 26.9981 19.6044 27.1442Z" fill="white"/>
</g>
<defs>
<clipPath id="clip0_2460_2800">
<rect width="22" height="22" fill="white" transform="translate(14 14)"/>
</clipPath>
</defs>
</svg>
