<svg width="80" height="80" viewBox="0 0 80 80" fill="none" xmlns="http://www.w3.org/2000/svg">
<rect width="80" height="80" rx="40" fill="#E8F2FC"/>
<rect x="10" y="10" width="60" height="60" rx="30" fill="#DBEBFB"/>
<path d="M42.9414 25.0938C42.6953 25.2637 42.2266 25.8789 42.2266 26.0313C42.2266 26.2129 42.5195 26.5234 42.6953 26.5234C42.9062 26.5234 43.1289 26.3711 43.4277 26.0195C43.6504 25.7617 43.7148 25.6445 43.7148 25.4805C43.7148 25.0996 43.2578 24.8711 42.9414 25.0938Z" fill="#4F9EEA"/>
<path d="M33.1838 26.0606C32.7151 26.1719 32.3284 26.4825 32.1409 26.9043C32.0412 27.1211 32.0295 27.3497 32.0295 29.7579V32.3829L31.3147 33.1563C30.8518 33.6602 30.553 34.0469 30.4534 34.2579C30.301 34.5801 30.301 34.586 30.3069 36.0743C30.3127 37.5215 30.4006 38.67 30.5881 39.9297L30.6702 40.4747L30.2366 41.6993C29.7209 43.1583 29.6799 43.4043 29.8557 43.9844C29.967 44.3418 30.0373 44.459 30.3186 44.7403C30.5002 44.9219 30.7112 45.1153 30.7873 45.1622C30.9045 45.2383 30.9104 45.2618 30.8518 45.4786C30.6995 46.0176 30.9573 46.8907 31.3967 47.3067C31.5022 47.4063 33.4123 48.7305 35.633 50.254C37.8596 51.7774 39.7346 53.0782 39.8108 53.1485C39.8987 53.2364 39.9631 53.3946 40.0041 53.6465C40.0334 53.8516 40.1038 54.0918 40.1506 54.1856C40.2737 54.4258 40.5901 54.7247 40.8538 54.8594C41.0705 54.9649 41.258 54.9708 45.0198 54.9883C48.8694 55.0001 48.9573 55.0001 49.2737 54.8829C49.6311 54.7481 49.9709 54.4258 50.1233 54.0684C50.2873 53.6758 50.2346 53.2481 49.8479 51.836C49.2502 49.6504 49.2268 49.504 49.2444 47.2071C49.262 45.1329 49.2268 44.6172 48.9924 43.5743C48.5413 41.5528 47.4338 39.4551 45.9748 37.8731C45.7756 37.6563 45.2893 37.2227 44.8967 36.9122C42.5413 35.0313 41.5803 33.7071 41.5745 32.336C41.5686 31.7559 41.6506 31.4395 42.0022 30.6543C42.5823 29.377 42.6526 29.1602 42.6584 28.7208C42.6643 28.3692 42.635 28.252 42.4768 27.9239C42.2483 27.461 41.8791 27.1036 41.4163 26.8868C41.1233 26.7461 41.012 26.7286 40.5256 26.7344C40.1506 26.7344 39.8987 26.7637 39.7522 26.8282C39.5471 26.9219 39.5178 26.9161 39.2248 26.8047C38.844 26.6583 38.3752 26.6875 38.0061 26.875C37.8655 26.9454 37.3616 27.3731 36.887 27.8184L36.0256 28.6329L35.9846 28.3223C35.8616 27.3848 35.3928 26.6817 34.637 26.3067C34.1565 26.0665 33.5764 25.9668 33.1838 26.0606ZM34.1858 27.209C34.5608 27.3848 34.8655 27.7715 34.9592 28.1817C34.9885 28.334 35.0178 28.709 35.0178 29.0137V29.5586L34.0393 30.4844L33.0549 31.4102L33.0373 29.3711C33.0256 27.4844 33.0315 27.3145 33.1252 27.209C33.3537 26.9571 33.6584 26.9571 34.1858 27.209ZM38.9553 27.7598C39.1663 27.8536 39.4182 28.3516 39.4534 28.7442C39.4885 29.1368 39.4065 29.4473 39.1838 29.752C38.967 30.0508 37.4495 31.4922 35.7327 33.045C34.9241 33.7774 34.2151 34.4571 34.1682 34.5508C34.1213 34.6446 34.0803 34.7852 34.0803 34.8672C34.0803 34.9844 34.0452 35.0254 33.9221 35.0547C33.5471 35.1309 33.0022 35.4004 32.7385 35.6407C32.3166 36.0215 32.135 36.3497 31.7541 37.4219L31.4143 38.3887L31.3791 38.0079C31.3557 37.7969 31.3205 37.0059 31.2971 36.2501C31.2561 35.0079 31.262 34.8555 31.3498 34.6797C31.5608 34.2754 32.9377 32.8809 35.6682 30.3262C38.6506 27.5313 38.5862 27.5899 38.9553 27.7598ZM41.0237 27.8067C41.3049 27.9297 41.5452 28.1993 41.6389 28.4864C41.7268 28.7559 41.633 29.0899 41.1936 30.0157C40.7307 31.0118 40.5784 31.5684 40.5784 32.295C40.5842 33.2735 40.9065 34.1583 41.6038 35.1075C42.0959 35.7696 43.1623 36.8184 44.1584 37.6094C45.9397 39.0215 47.1936 40.92 47.8616 43.1934C48.2073 44.3946 48.2248 44.5821 48.2307 46.9434C48.2366 49.6446 48.2541 49.7911 48.8987 52.1758C49.1213 52.9961 49.2444 53.5411 49.2209 53.629C49.2034 53.7051 49.1155 53.8223 49.0393 53.8868C48.8928 53.9981 48.7873 54.004 45.1487 54.004C42.5354 54.004 41.3694 53.9864 41.2698 53.9395C41.0881 53.8575 41.012 53.711 40.9416 53.2774C40.8713 52.9024 40.7424 52.6504 40.4846 52.4161C40.3967 52.3282 38.5041 51.0157 36.2776 49.4922C34.0569 47.9747 32.1643 46.6504 32.0764 46.5626C31.8596 46.3282 31.7659 45.9708 31.8479 45.6602C31.8772 45.5254 32.3928 44.0372 32.9846 42.3555C34.1096 39.1622 34.1741 39.0215 34.6077 38.7227C34.9592 38.4883 35.1526 38.4708 37.4963 38.4883C39.7053 38.5059 39.7405 38.5059 39.9866 38.6407C40.3909 38.8575 42.512 40.4102 42.6116 40.5626C42.8752 40.961 42.0784 41.6407 41.3459 41.6407C40.9475 41.6407 40.7366 41.5411 39.928 41.0079C39.1311 40.4864 38.9729 40.4512 37.7131 40.4805C36.8694 40.4981 36.717 40.5157 36.512 40.627C36.2483 40.7676 36.0139 40.9668 35.8791 41.1778C35.7737 41.3418 35.3342 42.6016 35.2463 42.9883C34.9299 44.3946 35.1877 45.3204 36.0373 45.8008C36.3889 46.0059 36.6467 46.0235 36.8225 45.8594C37.1155 45.584 37.0452 45.2442 36.6467 45.004C36.5061 44.9219 36.3479 44.7872 36.2893 44.711C36.1428 44.5118 36.0842 44.1133 36.137 43.6856C36.2131 43.1465 36.635 41.8516 36.7991 41.6583L36.9397 41.4942H37.9006H38.8557L39.383 41.8516C40.2795 42.461 40.7131 42.6368 41.3284 42.6368C42.0139 42.6368 42.7288 42.3204 43.1623 41.834C43.6077 41.3301 43.7424 40.9317 43.6311 40.4512C43.5315 39.9883 43.3147 39.7422 42.553 39.2032C42.4416 39.127 42.4475 39.1211 42.5705 38.834C42.7932 38.3126 42.7053 37.7208 42.3538 37.3399C42.0959 37.0704 39.4358 35.1954 39.1721 35.1075C39.0139 35.0489 38.6916 35.0196 38.2405 35.0196H37.5491L37.508 34.5743C37.467 34.1524 37.4905 33.5489 37.5784 32.9395C37.6077 32.6993 37.6721 32.629 38.7209 31.6387C39.3303 31.0645 39.9221 30.461 40.0334 30.2969C40.4553 29.6875 40.5725 28.8672 40.3498 28.1524C40.2854 27.9532 40.2327 27.7657 40.2327 27.7364C40.2327 27.6543 40.7952 27.7012 41.0237 27.8067ZM36.5178 35.002C36.5061 35.0137 36.178 35.0137 35.7795 35.0079L35.0647 34.9903L35.762 34.3692L36.4534 33.7481L36.4944 34.3633C36.5178 34.7032 36.5295 34.9903 36.5178 35.002ZM38.9963 36.1387C39.2952 36.3204 41.4104 37.8262 41.5686 37.9668C41.6389 38.0313 41.6975 38.1543 41.6975 38.2364C41.6975 38.5528 41.6272 38.5469 41.1233 38.1895C40.133 37.4864 40.1272 37.4805 37.3909 37.4805C35.0178 37.4805 34.7893 37.504 34.2444 37.7793C33.9045 37.9493 33.4241 38.4239 33.2483 38.752C33.1662 38.9102 32.6799 40.2168 32.1702 41.6641L31.2444 44.295L31.0569 44.084C30.8049 43.8086 30.717 43.4805 30.8049 43.1524C30.9045 42.7715 32.9436 37.0469 33.0608 36.8243C33.2424 36.4551 33.5588 36.1915 33.9631 36.0684C34.0452 36.045 35.1643 36.0215 36.4534 36.0215C38.7327 36.0157 38.803 36.0215 38.9963 36.1387Z" fill="#4F9EEA"/>
<path d="M41.7854 44.1309C41.5451 44.3653 41.5862 44.6172 41.926 45.0215C42.7873 46.0528 43.7307 46.6797 44.7151 46.8848C45.3362 47.0137 45.5822 47.002 45.7756 46.8321C46.133 46.5274 45.8928 45.9766 45.4006 45.9766C45.0608 45.9766 44.5334 45.8184 44.0764 45.584C43.7541 45.4141 43.508 45.2149 42.9748 44.6758C42.3947 44.084 42.2658 43.9844 42.1135 43.9844C41.9904 43.9844 41.8733 44.0371 41.7854 44.1309Z" fill="#4F9EEA"/>
<path d="M38.6465 46.1465C38.5527 46.2461 38.4766 46.3809 38.4766 46.4629C38.4766 46.7266 38.6758 46.8789 39.4375 47.2012C40.7148 47.7344 41.9453 48.5605 42.4434 49.2051C42.7715 49.6387 42.8652 49.8438 42.959 50.3301C43.0469 50.8047 43.1758 50.957 43.4805 50.957C43.6855 50.957 43.8906 50.8047 43.9551 50.6055C44.0195 50.4121 43.873 49.709 43.6973 49.334C43.2402 48.3848 42.2969 47.5352 40.8203 46.75C40.1934 46.416 39.127 45.9766 38.9395 45.9766C38.875 45.9766 38.7402 46.0527 38.6465 46.1465Z" fill="#4F9EEA"/>
<path d="M44.2174 27.1738C43.7604 27.3086 43.6198 27.4316 43.6139 27.7246C43.608 27.8945 43.6432 27.9766 43.7721 28.082C43.86 28.1582 43.9889 28.2227 44.0592 28.2227C44.3229 28.2227 45.0084 27.9883 45.1139 27.8652C45.2604 27.6836 45.2428 27.3672 45.067 27.1973C44.8971 27.0215 44.7389 27.0156 44.2174 27.1738Z" fill="#4F9EEA"/>
<path d="M43.3421 29.6056C43.1781 29.8165 43.1839 30.1036 43.3538 30.2618C43.4242 30.3263 43.6761 30.4376 43.9163 30.5021C44.3031 30.6075 44.3675 30.6134 44.5433 30.5372C44.7308 30.461 44.8597 30.2677 44.8597 30.0685C44.8597 29.881 44.5726 29.6466 44.221 29.5528C43.6995 29.4064 43.4886 29.4239 43.3421 29.6056Z" fill="#4F9EEA"/>
</svg>
