<svg width="50" height="50" viewBox="0 0 50 50" fill="none" xmlns="http://www.w3.org/2000/svg">
<circle cx="25" cy="25" r="25" fill="white" fill-opacity="0.1"/>
<path d="M20.1766 13.0516C20.0406 13.075 19.7312 13.1594 19.4969 13.2391C18.1469 13.6891 17.1672 14.7203 16.7172 16.1641L16.5859 16.5859V22.75V28.9141L16.7125 29.3172C16.975 30.1562 17.2844 30.6812 17.8375 31.2344C18.4516 31.8484 19.1641 32.2281 20.0547 32.4109C20.3828 32.4812 20.6828 32.5 21.4281 32.5H22.375V34.6328V36.7703L22.4922 36.8828L22.6047 37H25H27.3953L27.5078 36.8828L27.625 36.7703V34.6328V32.5H28.5766C29.6406 32.5 30.0859 32.4344 30.7422 32.1766C31.7687 31.7828 32.7203 30.8312 33.1141 29.8047C33.4516 28.9422 33.4375 29.2422 33.4375 22.7687C33.4375 17.6734 33.4281 16.9 33.3625 16.5625C33.0484 14.8937 31.9375 13.6703 30.2734 13.1547L29.8516 13.0234L25.1406 13.0187C22.4875 13.0141 20.3172 13.0281 20.1766 13.0516ZM29.8187 13.825C30.9859 14.0641 31.9562 14.8516 32.4016 15.9203C32.6969 16.6375 32.6875 16.4031 32.6875 22.75C32.6875 27.8312 32.6781 28.5625 32.6125 28.8812C32.3734 30.0484 31.5859 31.0187 30.5172 31.4641C29.9594 31.6937 29.5656 31.75 28.5391 31.75H27.625V30.625V29.5H28.0703C28.4828 29.5 28.5297 29.4906 28.6328 29.3828C28.7875 29.2328 28.7875 29.0172 28.6328 28.8672L28.5203 28.75H25H21.4797L21.3672 28.8672C21.2125 29.0172 21.2125 29.2328 21.3672 29.3828C21.4703 29.4906 21.5172 29.5 21.9297 29.5H22.375V30.625V31.75H21.4609C20.4344 31.75 20.0406 31.6937 19.4828 31.4641C18.4141 31.0187 17.6266 30.0484 17.3875 28.8812C17.3219 28.5625 17.3125 27.8312 17.3125 22.75C17.3125 17.6687 17.3219 16.9375 17.3875 16.6187C17.6781 15.1984 18.7469 14.125 20.1719 13.8203C20.4203 13.7687 21.3297 13.7547 24.9672 13.7547C28.8906 13.75 29.5047 13.7594 29.8187 13.825ZM26.875 32.875V36.25H25H23.125V32.875V29.5H25H26.875V32.875Z" fill="white"/>
<path d="M19.8672 16.3047L19.75 16.4172V20.9688V25.5203L19.8672 25.6328L19.9797 25.75H25H30.0203L30.1328 25.6328L30.25 25.5203V20.9688V16.4172L30.1328 16.3047L30.0203 16.1875H25H19.9797L19.8672 16.3047ZM29.5 20.9688V25H25H20.5V20.9688V16.9375H25H29.5V20.9688Z" fill="white"/>
<path d="M24.8784 18.1094C24.8268 18.1282 24.6815 18.2594 24.555 18.4C24.0018 19.0141 23.4487 19.9516 23.1909 20.711C23.0268 21.1891 23.0128 21.2641 23.0128 21.7891C23.0081 22.3282 23.0128 22.3657 23.1581 22.6704C23.4534 23.2938 24.0159 23.725 24.6909 23.8422C25.83 24.0344 26.9409 23.1485 27.0065 21.9907C27.0722 20.8844 26.5518 19.6375 25.544 18.4704C25.3284 18.2219 25.1128 18.0579 25.0143 18.0672C24.9956 18.0672 24.9347 18.086 24.8784 18.1094ZM25.4925 19.6375C26.2003 20.6829 26.4628 21.8829 26.1112 22.4829C25.8628 22.9 25.4831 23.125 25.0003 23.125C24.5034 23.125 24.0862 22.8719 23.8659 22.4454C23.5097 21.761 23.9456 20.3407 24.8784 19.1735L25.019 18.9954L25.1268 19.1266C25.1878 19.1969 25.3518 19.4313 25.4925 19.6375Z" fill="white"/>
<path d="M24.6258 33.311C24.3961 33.386 24.0024 33.7891 23.9321 34.0282C23.8008 34.4688 23.8946 34.8204 24.2274 35.1485C24.7008 35.6266 25.3008 35.6266 25.7743 35.1485C26.018 34.9094 26.1258 34.6704 26.1258 34.375C26.1258 34.0797 26.018 33.8407 25.7743 33.6016C25.4461 33.2688 25.0618 33.175 24.6258 33.311ZM25.2586 34.1172C25.493 34.3469 25.329 34.75 25.0008 34.75C24.9118 34.75 24.8133 34.7079 24.743 34.6329C24.5086 34.4032 24.6727 34 25.0008 34C25.0899 34 25.1883 34.0422 25.2586 34.1172Z" fill="white"/>
</svg>
