<svg width="80" height="80" viewBox="0 0 80 80" fill="none" xmlns="http://www.w3.org/2000/svg">
<rect width="80" height="80" rx="40" fill="#E8F2FC"/>
<rect x="10" y="10" width="60" height="60" rx="30" fill="#DBEBFB"/>
<path d="M39.1322 25.1172C38.4993 25.2871 38.0365 25.5566 37.5384 26.0547C36.7122 26.875 36.4427 27.7012 36.5013 29.2422C36.5423 30.4258 36.7122 30.9531 37.2865 31.6914C37.515 31.9961 37.5325 32.0312 37.4212 32.0312C37.3568 32.0312 37.0931 32.0723 36.847 32.125C35.5638 32.3887 34.556 32.9512 33.6419 33.9121C33.1497 34.4336 32.8626 34.8613 32.5521 35.5176C32.0365 36.6133 31.9544 37.3516 31.9837 40.6797C32.0072 43.375 32.013 43.3926 32.4466 43.8906C32.9681 44.4824 33.8177 44.6523 34.5208 44.3125L34.8665 44.1426L34.9544 44.2832C35.0072 44.3594 35.1888 44.5879 35.3646 44.7988L35.6868 45.1738L36.0208 49.0469C36.2083 51.1797 36.3724 53.0371 36.39 53.1836C36.4427 53.582 36.7415 54.1387 37.0579 54.4199C37.4974 54.8066 37.89 54.9648 38.4466 54.9707C38.9915 54.9707 39.3431 54.8594 39.7415 54.5547L39.9993 54.3555L40.2572 54.5547C40.6556 54.8594 41.0072 54.9707 41.5579 54.9707C41.9681 54.9648 42.0794 54.9414 42.4134 54.7773C43.0462 54.4668 43.5208 53.8281 43.6087 53.1777C43.6263 53.0371 43.7904 51.1797 43.9779 49.0469L44.3118 45.1738L44.6341 44.7988C44.8099 44.5879 44.9915 44.3594 45.0443 44.2832L45.1322 44.1426L45.4779 44.3125C46.181 44.6523 47.0306 44.4824 47.5521 43.8906C47.9857 43.3984 47.9857 43.3691 48.015 40.7324C48.0443 37.4102 47.9564 36.6074 47.4407 35.5059C47.1302 34.8379 46.8431 34.4219 46.3099 33.8652C45.3607 32.875 44.0892 32.2188 42.7943 32.0605L42.4603 32.0195L42.7181 31.6855C43.0228 31.2988 43.2279 30.8945 43.3802 30.4199C43.4622 30.1387 43.4857 29.8691 43.4857 29.043C43.4857 27.8828 43.4329 27.5957 43.1165 26.9336C42.847 26.3828 42.1907 25.6973 41.6575 25.4219C40.8841 25.0176 39.9525 24.9062 39.1322 25.1172ZM40.6146 26.084C41.5579 26.3301 42.2786 27.1094 42.4544 28.0703C42.5365 28.5039 42.5365 29.4238 42.4603 29.8926C42.3314 30.666 41.7865 31.3984 41.0599 31.7559C40.6966 31.9316 40.6439 31.9434 39.9993 31.9434C39.3548 31.9434 39.3021 31.9316 38.9388 31.7559C38.2064 31.3926 37.6673 30.6777 37.5384 29.8926C37.4622 29.4238 37.4622 28.5039 37.5443 28.0703C37.8079 26.6348 39.22 25.7266 40.6146 26.084ZM43.1517 33.1445C44.64 33.502 45.8939 34.5332 46.5384 35.9277C46.9544 36.8242 46.972 37 46.972 40.1465C46.972 42.8652 46.9661 42.9648 46.8548 43.1523C46.6439 43.5039 46.1751 43.5918 45.8177 43.3574C45.6302 43.2344 45.6068 43.0938 45.7122 42.7422C45.9876 41.7754 46.0697 40.041 45.8822 38.9395C45.7122 37.9316 45.1732 36.4961 44.8392 36.1621C44.6224 35.9453 44.3353 35.9629 44.1361 36.1973C44.054 36.2969 43.9837 36.4199 43.9837 36.4727C43.9837 36.5254 44.1009 36.8066 44.2415 37.0996C44.8216 38.2891 45.0032 39.2148 44.9622 40.7324C44.9447 41.623 44.9154 41.875 44.7865 42.3555C44.4583 43.5977 43.7845 44.4648 42.7767 44.957C41.2884 45.6777 38.681 45.6719 37.2161 44.9512C36.1966 44.4473 35.5404 43.5977 35.2122 42.3555C35.0833 41.875 35.054 41.623 35.0365 40.7324C34.9954 39.2148 35.1771 38.2891 35.7572 37.0996C35.8978 36.8066 36.015 36.5254 36.015 36.4727C36.015 36.4199 35.9447 36.2969 35.8626 36.1973C35.6634 35.9629 35.3763 35.9453 35.1595 36.1621C34.9661 36.3555 34.6146 37.1172 34.3802 37.8496C34.0814 38.7871 34.0052 39.4316 34.0404 40.7559C34.0638 41.752 34.0872 41.9805 34.222 42.4902C34.3861 43.1172 34.3802 43.2227 34.181 43.3574C33.8236 43.5918 33.3548 43.5039 33.1439 43.1523C33.0325 42.9648 33.0267 42.8652 33.0267 40.1465C33.0267 37.5391 33.0384 37.2988 33.1439 36.8477C33.5775 35.0371 35.013 33.5898 36.8177 33.1504C37.2337 33.0449 37.5208 33.0332 39.97 33.0332C42.4661 33.0273 42.7005 33.0391 43.1517 33.1445ZM37.2572 46.041C37.7259 46.2227 38.4466 46.3926 38.9564 46.4336L39.4427 46.4746V49.9375V53.4004L39.2845 53.6055C38.9564 54.0391 38.3118 54.1094 37.8431 53.7695C37.4036 53.4531 37.4036 53.4766 37.0755 49.6387C36.9115 47.7344 36.7767 46.1055 36.7767 46.0117C36.7767 45.877 36.7943 45.8535 36.8822 45.8887C36.9349 45.9121 37.1048 45.9824 37.2572 46.041ZM42.929 49.5977C42.5892 53.4824 42.595 53.4531 42.1556 53.7695C41.6868 54.1094 41.0423 54.0391 40.7142 53.6055L40.556 53.4004V49.9375V46.4746L41.0013 46.4395C41.5638 46.3926 42.1849 46.252 42.7532 46.041C43.1634 45.8887 43.1927 45.8828 43.2103 45.9883C43.222 46.0469 43.0931 47.6699 42.929 49.5977Z" fill="#4F9EEA"/>
</svg>
