<?xml version="1.0" encoding="UTF-8"?>
<svg version="1.1" xmlns="http://www.w3.org/2000/svg" width="512" height="512">
<path d="M0 0 C0.99644531 0.72703125 1.99289062 1.4540625 3.01953125 2.203125 C6.03918337 4.43652808 9.02533546 6.70711397 12 9 C12.83144531 9.63550781 13.66289062 10.27101562 14.51953125 10.92578125 C21.72096671 16.54499503 28.39332375 22.70253802 35 29 C35.49709473 29.47373047 35.99418945 29.94746094 36.50634766 30.43554688 C43.22786199 36.88783866 49.25371331 43.67373606 55 51 C55.76699219 51.9384375 56.53398437 52.876875 57.32421875 53.84375 C84.74537741 88.10915921 101.27952281 129.85576311 108 173 C108.11714355 173.72123047 108.23428711 174.44246094 108.35498047 175.18554688 C115.96072172 224.0521519 106.7854219 276.90216972 85 321 C84.61730957 321.77778809 84.23461914 322.55557617 83.84033203 323.35693359 C78.3213899 334.4548789 72.20311422 344.91617012 65 355 C64.31599121 355.96800537 64.31599121 355.96800537 63.61816406 356.95556641 C56.17977947 367.41882599 47.95401604 376.81657762 39 386 C38.38721191 386.63856934 37.77442383 387.27713867 37.14306641 387.93505859 C29.17236799 396.23812911 21.00159611 403.838599 11.75048828 410.69384766 C9.99110314 412.00663852 8.25851821 413.34951419 6.52734375 414.69921875 C-28.27245591 441.47344614 -71.63211338 457.01465973 -115 462 C-115.80131348 462.0942627 -116.60262695 462.18852539 -117.42822266 462.28564453 C-125.81415231 463.16497949 -134.20229785 463.24330884 -142.625 463.25 C-143.77784485 463.25101212 -143.77784485 463.25101212 -144.95397949 463.25204468 C-185.97855321 463.19522247 -225.8132798 453.33488228 -262 434 C-262.98129883 433.48034668 -262.98129883 433.48034668 -263.98242188 432.95019531 C-285.95146203 421.2369461 -305.12319892 406.23548086 -323 389 C-323.86753906 388.17371094 -324.73507812 387.34742188 -325.62890625 386.49609375 C-331.24057006 381.04058058 -336.15950586 375.14275906 -341 369 C-341.79277344 368.01257813 -342.58554687 367.02515625 -343.40234375 366.0078125 C-385.94960799 312.10116808 -402.93815088 243.73088023 -395 176 C-387.65971054 119.00987782 -359.06026551 59.21688793 -314.2265625 21.85546875 C-312.43910551 20.36592126 -310.69666692 18.84913682 -308.9609375 17.30078125 C-296.071433 5.88271535 -281.94320179 -3.48819404 -267 -12 C-266.36046387 -12.36834961 -265.72092773 -12.73669922 -265.06201172 -13.11621094 C-185.67266982 -58.44223778 -74.13322018 -54.9471341 0 0 Z " fill="#4BAE4F" transform="translate(399,46)"/>
<path d="M0 0 C20.62022245 -1.04328506 40.77877772 2.83527268 59.640625 11.14160156 C60.34654785 11.4511377 61.0524707 11.76067383 61.77978516 12.07958984 C77.09505779 18.94456551 89.61392015 28.55511285 101.640625 40.14160156 C102.34574219 40.78355469 103.05085937 41.42550781 103.77734375 42.08691406 C126.19223646 63.09235104 140.42662049 96.64866469 141.640625 127.14160156 C141.67317383 127.8940918 141.70572266 128.64658203 141.73925781 129.421875 C143.09646773 165.29882797 131.17431411 201.33109666 106.85742188 228.10498047 C98.25986403 237.31258883 89.33337408 245.45826889 78.640625 252.14160156 C78.02783691 252.52896484 77.41504883 252.91632813 76.78369141 253.31542969 C46.13127555 272.39363161 9.58600499 277.7695948 -25.6015625 270.28222656 C-35.54181013 267.84526263 -45.17748927 264.73254443 -54.359375 260.14160156 C-58.91998292 259.85862012 -62.66767132 260.58840892 -67.046875 261.82910156 C-68.37874014 262.19949105 -69.71077999 262.56925274 -71.04296875 262.93847656 C-72.09460205 263.23334961 -72.09460205 263.23334961 -73.16748047 263.53417969 C-76.97110929 264.58824835 -80.79088401 265.58049784 -84.609375 266.57910156 C-86.20968497 266.99948589 -87.8099448 267.42006112 -89.41015625 267.84082031 C-90.21662598 268.05270996 -91.0230957 268.26459961 -91.85400391 268.48291016 C-94.45369327 269.16639894 -97.05305936 269.85110561 -99.65234375 270.53613281 C-100.51375977 270.76308838 -101.37517578 270.99004395 -102.26269531 271.22387695 C-103.91443331 271.65908923 -105.56612815 272.09446532 -107.21777344 272.5300293 C-107.96446289 272.72669189 -108.71115234 272.92335449 -109.48046875 273.12597656 C-110.1345874 273.29838867 -110.78870605 273.47080078 -111.46264648 273.6484375 C-116.49873127 274.95785844 -121.13488708 275.99838033 -126.359375 275.14160156 C-129.11506947 272.96001011 -130.79526247 271.26982663 -132.359375 268.14160156 C-132.75264579 261.2186796 -131.69125532 255.56764894 -129.734375 248.95410156 C-129.18326342 247.0166955 -128.63249234 245.07919255 -128.08203125 243.14160156 C-127.79730957 242.15417969 -127.51258789 241.16675781 -127.21923828 240.14941406 C-125.82258757 235.26391244 -124.50010309 230.35855626 -123.171875 225.45410156 C-122.69958502 223.7209288 -122.22694009 221.98785271 -121.75390625 220.25488281 C-121.52912598 219.4229541 -121.3043457 218.59102539 -121.07275391 217.73388672 C-120.56980841 215.90627711 -120.04960998 214.08337244 -119.51708984 212.26416016 C-117.06143457 203.74345354 -116.70047211 198.72363934 -120.609375 190.57910156 C-132.98185672 163.41559773 -136.42569884 128.93784981 -127.359375 100.14160156 C-127.11799805 99.36606934 -126.87662109 98.59053711 -126.62792969 97.79150391 C-121.44189115 81.62998128 -114.02796976 66.4047366 -103.359375 53.14160156 C-102.94961426 52.62645996 -102.53985352 52.11131836 -102.11767578 51.58056641 C-87.67804969 33.53237228 -70.31180988 20.69054552 -49.359375 11.14160156 C-48.32167969 10.65949219 -47.28398437 10.17738281 -46.21484375 9.68066406 C-31.21068247 3.05231972 -16.19443662 0.97193432 0 0 Z " fill="#4BAE4F" transform="translate(251.359375,117.8583984375)"/>
<path d="M0 0 C20.62022245 -1.04328506 40.77877772 2.83527268 59.640625 11.14160156 C60.34654785 11.4511377 61.0524707 11.76067383 61.77978516 12.07958984 C77.09505779 18.94456551 89.61392015 28.55511285 101.640625 40.14160156 C102.34574219 40.78355469 103.05085937 41.42550781 103.77734375 42.08691406 C126.19223646 63.09235104 140.42662049 96.64866469 141.640625 127.14160156 C141.67317383 127.8940918 141.70572266 128.64658203 141.73925781 129.421875 C143.09646773 165.29882797 131.17431411 201.33109666 106.85742188 228.10498047 C98.25986403 237.31258883 89.33337408 245.45826889 78.640625 252.14160156 C78.02783691 252.52896484 77.41504883 252.91632813 76.78369141 253.31542969 C46.13127555 272.39363161 9.58600499 277.7695948 -25.6015625 270.28222656 C-35.54181013 267.84526263 -45.17748927 264.73254443 -54.359375 260.14160156 C-58.91998292 259.85862012 -62.66767132 260.58840892 -67.046875 261.82910156 C-68.37874014 262.19949105 -69.71077999 262.56925274 -71.04296875 262.93847656 C-72.09460205 263.23334961 -72.09460205 263.23334961 -73.16748047 263.53417969 C-76.97110929 264.58824835 -80.79088401 265.58049784 -84.609375 266.57910156 C-86.20968497 266.99948589 -87.8099448 267.42006112 -89.41015625 267.84082031 C-90.21662598 268.05270996 -91.0230957 268.26459961 -91.85400391 268.48291016 C-94.45369327 269.16639894 -97.05305936 269.85110561 -99.65234375 270.53613281 C-100.51375977 270.76308838 -101.37517578 270.99004395 -102.26269531 271.22387695 C-103.91443331 271.65908923 -105.56612815 272.09446532 -107.21777344 272.5300293 C-107.96446289 272.72669189 -108.71115234 272.92335449 -109.48046875 273.12597656 C-110.1345874 273.29838867 -110.78870605 273.47080078 -111.46264648 273.6484375 C-116.49873127 274.95785844 -121.13488708 275.99838033 -126.359375 275.14160156 C-129.11506947 272.96001011 -130.79526247 271.26982663 -132.359375 268.14160156 C-132.75264579 261.2186796 -131.69125532 255.56764894 -129.734375 248.95410156 C-129.18326342 247.0166955 -128.63249234 245.07919255 -128.08203125 243.14160156 C-127.79730957 242.15417969 -127.51258789 241.16675781 -127.21923828 240.14941406 C-125.82258757 235.26391244 -124.50010309 230.35855626 -123.171875 225.45410156 C-122.69958502 223.7209288 -122.22694009 221.98785271 -121.75390625 220.25488281 C-121.52912598 219.4229541 -121.3043457 218.59102539 -121.07275391 217.73388672 C-120.56980841 215.90627711 -120.04960998 214.08337244 -119.51708984 212.26416016 C-117.06143457 203.74345354 -116.70047211 198.72363934 -120.609375 190.57910156 C-132.98185672 163.41559773 -136.42569884 128.93784981 -127.359375 100.14160156 C-127.11799805 99.36606934 -126.87662109 98.59053711 -126.62792969 97.79150391 C-121.44189115 81.62998128 -114.02796976 66.4047366 -103.359375 53.14160156 C-102.94961426 52.62645996 -102.53985352 52.11131836 -102.11767578 51.58056641 C-87.67804969 33.53237228 -70.31180988 20.69054552 -49.359375 11.14160156 C-48.32167969 10.65949219 -47.28398437 10.17738281 -46.21484375 9.68066406 C-31.21068247 3.05231972 -16.19443662 0.97193432 0 0 Z M-67.359375 48.14160156 C-68.35582031 48.97433594 -69.35226563 49.80707031 -70.37890625 50.66503906 C-91.92266923 69.24951291 -105.96357184 95.88133583 -109.359375 124.14160156 C-111.06642618 147.29348323 -107.10497192 169.86713872 -95.81201172 190.27197266 C-93.05846261 195.55437276 -93.15218977 199.37400669 -94.359375 205.14160156 C-94.51398193 205.88893555 -94.66858887 206.63626953 -94.82788086 207.40625 C-95.35691894 209.76863081 -95.94169239 212.11011102 -96.546875 214.45410156 C-96.76174561 215.30351318 -96.97661621 216.1529248 -97.19799805 217.02807617 C-99.08092308 224.34295464 -101.22152116 231.57410897 -103.47924805 238.78149414 C-103.72457275 239.57193115 -103.96989746 240.36236816 -104.22265625 241.17675781 C-104.44219971 241.87164307 -104.66174316 242.56652832 -104.88793945 243.2824707 C-105.48227445 245.30659988 -105.48227445 245.30659988 -105.359375 248.14160156 C-99.10916498 246.99373252 -92.97295816 245.56913626 -86.82421875 243.97753906 C-86.05566559 243.77968811 -85.28711243 243.58183716 -84.49526978 243.37799072 C-81.28511173 242.5506419 -78.07547545 241.72180558 -74.86987305 240.87695312 C-72.50293843 240.25471897 -70.13276585 239.64638611 -67.76171875 239.04003906 C-67.05208481 238.84944916 -66.34245087 238.65885925 -65.61131287 238.4624939 C-57.42483695 236.39464322 -50.94317186 236.28728255 -43.359375 240.32910156 C-35.30429753 244.39430978 -27.09794078 246.96595041 -18.359375 249.14160156 C-16.88984375 249.51285156 -16.88984375 249.51285156 -15.390625 249.89160156 C11.63147559 255.48238099 42.24451237 248.87646592 65.33837891 234.05175781 C91.59115758 216.58331496 109.43420775 191.88656761 116.640625 161.14160156 C116.86621094 160.201875 117.09179688 159.26214844 117.32421875 158.29394531 C122.22008982 133.20682667 118.47589162 106.71529395 106.640625 84.14160156 C106.31078613 83.50673828 105.98094727 82.871875 105.64111328 82.21777344 C100.6407289 72.80137264 94.53731721 65.10077453 87.03369141 57.55810547 C85.79270941 56.2962447 84.59421136 54.99292062 83.40234375 53.68457031 C66.55647153 35.56970584 39.75961547 24.45197229 15.33935547 22.93676758 C12.02013785 22.83957994 8.71119267 22.81250233 5.390625 22.82910156 C4.2147583 22.83401611 3.0388916 22.83893066 1.82739258 22.84399414 C-23.68639505 23.18539183 -47.72337463 31.69343754 -67.359375 48.14160156 Z " fill="#FCFEFC" transform="translate(251.359375,117.8583984375)"/>
<path d="M0 0 C5.35006203 4.83896212 7.66229631 11.37848478 10.375 17.9375 C10.83777344 18.99646484 11.30054688 20.05542969 11.77734375 21.14648438 C15.94115475 31.10855756 15.94115475 31.10855756 14 37 C12.44140625 39.58203125 12.44140625 39.58203125 10.5625 41.8125 C9.63630859 42.93591797 9.63630859 42.93591797 8.69140625 44.08203125 C7.50459361 45.42781648 6.26879118 46.73120882 5 48 C5.32807944 55.4823279 10.50571876 60.4520356 15 66 C15.63292969 66.81210937 16.26585937 67.62421875 16.91796875 68.4609375 C25.11459595 78.42272323 37.83461298 86.60694358 50 91 C52.62612436 91.22585469 52.62612436 91.22585469 55 90 C56.9205882 88.07077347 58.53615095 86.25851299 60.1875 84.125 C60.62513672 83.58230469 61.06277344 83.03960937 61.51367188 82.48046875 C63.45998553 80.04980528 65.27203937 77.59194094 67 75 C74.34234841 75.35064761 80.31365887 78.73090847 86.8125 81.9375 C88.52856445 82.76411133 88.52856445 82.76411133 90.27929688 83.60742188 C98.71116251 87.71116251 98.71116251 87.71116251 101 90 C102.12429387 96.91571459 100.83262783 103.16962849 97 109 C91.04792948 115.9604213 83.24698022 120.23571879 74.21875 121.55078125 C52.6777638 123.06197698 29.60904601 110.67179974 13.52734375 97.12109375 C-5.28988873 80.68189234 -26.43275789 59.07532737 -29.3359375 32.98046875 C-29.49875865 21.33875681 -25.98091093 12.49183017 -18 4 C-13.04710977 -0.72252324 -6.57372322 -1.64564269 0 0 Z " fill="#FDFEFD" transform="translate(223,193)"/>
</svg>
