<svg width="80" height="80" viewBox="0 0 80 80" fill="none" xmlns="http://www.w3.org/2000/svg">
<rect width="80" height="80" rx="40" fill="#E8F2FC"/>
<rect x="10" y="10" width="60" height="60" rx="30" fill="#DBEBFB"/>
<path d="M33.6792 26.0312C33.1929 26.1602 32.7124 26.4473 32.3667 26.8105C31.7866 27.4199 31.564 28.041 31.564 29.0547V29.6875H29.9937C28.7749 29.6875 28.3472 29.7051 28.0776 29.7754C27.0698 30.0391 26.2905 30.8242 26.0269 31.8379C25.8921 32.3418 25.8921 47.6582 26.0269 48.1621C26.2905 49.1758 27.0698 49.9609 28.0776 50.2246C28.3823 50.3008 29.7886 50.3125 39.9487 50.3125C47.5425 50.3125 51.5796 50.2949 51.7847 50.2539C52.8628 50.0488 53.8062 49.1055 54.0054 48.0332C54.0405 47.834 54.064 44.8691 54.064 39.9473C54.064 31.4805 54.0815 31.8789 53.7358 31.1992C53.5249 30.7832 53.0151 30.2676 52.605 30.0449C51.9956 29.7227 51.7437 29.6875 50.0093 29.6875H48.439V29.0547C48.439 28.6738 48.4038 28.2871 48.3511 28.0762C48.0874 27.0684 47.3022 26.2891 46.2886 26.0254C45.7964 25.8965 34.1597 25.9023 33.6792 26.0312ZM46.1304 27.9648C46.4819 28.2227 46.5347 28.3574 46.5522 29.0488L46.5757 29.6875H40.0073H33.439V29.1367C33.439 28.5391 33.4917 28.334 33.6909 28.1113C33.9722 27.8066 33.7319 27.8125 40.0718 27.8301C45.9253 27.8418 45.9722 27.8418 46.1304 27.9648ZM51.7554 31.7148C52.1538 32.0078 52.1597 32.0312 52.1597 33.3906V34.6211L47.5015 36.6836L42.8433 38.7461L42.814 37.7969C42.7847 36.7598 42.7554 36.6836 42.3804 36.4023C42.2222 36.2852 42.1519 36.2793 40.0015 36.2793C37.8511 36.2793 37.7808 36.2852 37.6226 36.4023C37.2417 36.6836 37.2183 36.7598 37.2007 37.7969L37.1831 38.752L33.7729 37.2461C31.8979 36.4141 29.7944 35.4824 29.103 35.1777L27.8433 34.6152L27.8257 33.543C27.8081 32.2949 27.8257 32.1543 28.0308 31.9082C28.3413 31.5449 27.4976 31.5684 40.0718 31.5801L51.5972 31.5918L51.7554 31.7148ZM31.3296 38.1953C32.7651 38.8223 34.6694 39.6484 35.5601 40.0352L37.1772 40.7266L37.2007 41.4707C37.2183 42.2969 37.2651 42.4141 37.6577 42.6777C37.8511 42.8125 37.8687 42.8125 40.0015 42.8125C42.1343 42.8125 42.1519 42.8125 42.3452 42.6777C42.7378 42.4141 42.7847 42.2969 42.8022 41.4766L42.8257 40.7324L44.355 40.0762C45.1987 39.7188 47.103 38.8867 48.5854 38.2363C50.0679 37.5918 51.4858 36.9707 51.7378 36.8594L52.189 36.666L52.1772 42.2559C52.1597 47.793 52.1597 47.8457 52.0366 48.0039C51.9722 48.0918 51.8433 48.2207 51.7554 48.2852L51.5972 48.4082H40.0015H28.4058L28.2476 48.2852C28.1597 48.2207 28.0308 48.0918 27.9663 48.0039C27.8433 47.8457 27.8433 47.793 27.8257 42.2559L27.814 36.666L28.2651 36.8594C28.5171 36.9707 29.894 37.5684 31.3296 38.1953ZM40.939 39.5312V40.9375H40.0015H39.064V39.5312V38.125H40.0015H40.939V39.5312Z" fill="#4F9EEA"/>
</svg>
